<?xml version="1.0" encoding="utf-8"?>
<!-- Generator: Adobe Illustrator 27.4.0, SVG Export Plug-In . SVG Version: 6.00 Build 0)  -->
<svg version="1.1" id="Calque_1" xmlns="http://www.w3.org/2000/svg" xmlns:xlink="http://www.w3.org/1999/xlink" x="0px" y="0px"
	 viewBox="0 0 3826.95 789.12" style="enable-background:new 0 0 3826.95 789.12;" xml:space="preserve">
<style type="text/css">
	.st0{fill:none;}
	.st1{fill:none;stroke:#000000;stroke-miterlimit:10;}
	.st2{fill:url(#SVGID_1_);}
	.st3{fill:url(#SVGID_00000060013488374221841360000012151676633252782764_);}
	.st4{fill:url(#SVGID_00000127730241778978709300000011009632636353823914_);}
	.st5{fill:url(#SVGID_00000110458523908124101080000000677516529412256179_);}
	.st6{fill:url(#SVGID_00000094615938245130974010000013848682524884558247_);}
	.st7{fill:url(#SVGID_00000101063879546028561660000005694033727791917233_);}
	.st8{fill:url(#SVGID_00000044154522378691391110000017026348874556447930_);}
	.st9{fill:url(#SVGID_00000153689065241548193800000002859413263766145664_);}
	.st10{fill:url(#SVGID_00000103255538067493753640000004129325911462342285_);}
	.st11{fill:url(#SVGID_00000117649540788309273410000006630271531254315918_);}
	.st12{opacity:0.49;fill:url(#SVGID_00000178190761818860782610000016955875656574486403_);}
	.st13{fill:url(#SVGID_00000046316394060067942030000013627038131021286282_);}
	.st14{opacity:0.49;fill:url(#SVGID_00000096033294027124210460000000027618307593951880_);}
	.st15{fill:url(#SVGID_00000041286577470088123590000006235856889446338187_);}
	.st16{fill:url(#SVGID_00000046327401218185536590000009759609239700078259_);}
	.st17{fill:url(#SVGID_00000150087187201281053770000017801353284315282860_);}
	.st18{opacity:0.49;fill:url(#SVGID_00000112595934905231262440000003834616005451958675_);}
	.st19{fill:#080C15;}
	.st20{fill:none;stroke:#FFFFFF;stroke-miterlimit:10;}
	.st21{fill:url(#SVGID_00000070806869801019931880000014402548994001359777_);}
	.st22{fill:url(#SVGID_00000000211517940574959090000013254831223981958535_);}
	.st23{fill:url(#SVGID_00000072256128515023213530000011483266473061531279_);}
	.st24{fill:url(#SVGID_00000062897721501743942350000014974423927169254530_);}
	.st25{fill:url(#SVGID_00000093164984493569183430000003734257480226958766_);}
	.st26{fill:url(#SVGID_00000167388271615903637660000017850641003736484501_);}
	.st27{fill:url(#SVGID_00000055679512942862342910000006675862334645273491_);}
	.st28{fill:url(#SVGID_00000106866666892743338120000012834454662964706716_);}
	.st29{fill:url(#SVGID_00000167355895063870445130000003877220352054613646_);}
	.st30{fill:url(#SVGID_00000182488186828042653730000001077589561234929029_);}
	.st31{opacity:0.49;fill:url(#SVGID_00000134962299974121668560000002270139045739632791_);}
	.st32{fill:url(#SVGID_00000052086790158642035150000016895834707437512590_);}
	.st33{opacity:0.49;fill:url(#SVGID_00000098214834247748539760000007376455196071124651_);}
	.st34{fill:url(#SVGID_00000112606832214735359840000018319772824933056673_);}
	.st35{fill:url(#SVGID_00000126305335337194692260000005728893117588898960_);}
	.st36{fill:url(#SVGID_00000111153803667606710780000011739953188984857504_);}
	.st37{opacity:0.49;fill:url(#SVGID_00000027603931904236319040000006132083118517237644_);}
	.st38{fill:#FFFFFF;}
	.st39{font-family:'GothamRounded-Light';}
	.st40{font-size:104.3346px;}
	.st41{fill:url(#SVGID_00000066507742185067355390000017514682457117905036_);}
	.st42{fill:url(#SVGID_00000176733124303257392730000006072346693674837182_);}
	.st43{fill:url(#SVGID_00000060709763133122563800000006479490684868584118_);}
	.st44{fill:url(#SVGID_00000181794893416728376440000008898484213389244053_);}
	.st45{fill:url(#SVGID_00000023254272706857768180000004806573113160186019_);}
	.st46{fill:url(#SVGID_00000174565687585013926370000008257407267744828857_);}
	.st47{fill:url(#SVGID_00000150785965362689984370000016929709458111137968_);}
	.st48{fill:url(#SVGID_00000158005954124149088370000007202022367953238700_);}
	.st49{fill:url(#SVGID_00000035496162581672320410000015859223844090476989_);}
	.st50{fill:url(#SVGID_00000067212024863984205640000017309732290445499318_);}
	.st51{opacity:0.49;fill:url(#SVGID_00000021813649396671882690000005749505493633892783_);}
	.st52{fill:url(#SVGID_00000154427719905168397190000014354154403141509765_);}
	.st53{opacity:0.49;fill:url(#SVGID_00000044153284466265285960000005255935941369398159_);}
	.st54{fill:url(#SVGID_00000106113827447372094400000011234137177643024528_);}
	.st55{fill:url(#SVGID_00000003783144580041094340000005804418529615512511_);}
	.st56{fill:url(#SVGID_00000094612120179172959710000009075574929878053284_);}
	.st57{opacity:0.49;fill:url(#SVGID_00000075870816615477895800000010233197197943253657_);}
	.st58{fill:url(#SVGID_00000138562996553460514590000003353679195018936730_);}
	.st59{fill:url(#SVGID_00000121257214319069958900000008803304801577769115_);}
	.st60{fill:url(#SVGID_00000059274973559324831540000004972309571056193920_);}
	.st61{fill:url(#SVGID_00000010308777943400477310000004748613945676712368_);}
	.st62{fill:url(#SVGID_00000015332495370576202470000010905043014827491497_);}
	.st63{fill:url(#SVGID_00000120531311443311458090000003299940863159274920_);}
	.st64{fill:url(#SVGID_00000091006045956790948330000013980727271860236678_);}
	.st65{fill:url(#SVGID_00000111882916407749078420000018096431716757843333_);}
	.st66{fill:url(#SVGID_00000072244794450276130500000018250873072754337436_);}
	.st67{fill:url(#SVGID_00000047056046303403810330000005974339512753710762_);}
	.st68{opacity:0.49;fill:url(#SVGID_00000008829110408406160310000003280597789018178490_);}
	.st69{fill:url(#SVGID_00000003824522389224815020000004417499459660004530_);}
	.st70{opacity:0.49;fill:url(#SVGID_00000081639199142455735290000004171791034530417039_);}
	.st71{fill:url(#SVGID_00000067949798915240131460000012465868150326494896_);}
	.st72{fill:url(#SVGID_00000057120510278231265730000014817527489972732349_);}
	.st73{fill:url(#SVGID_00000181770838786930196610000016546935394136923320_);}
	.st74{opacity:0.49;fill:url(#SVGID_00000135674785269893067630000000318867925710384554_);}
	.st75{fill:url(#SVGID_00000030478035797567231900000001441090538111892879_);}
	.st76{fill:url(#SVGID_00000062901282520687307140000008526219868853690291_);}
	.st77{fill:url(#SVGID_00000112607051448711529520000006070524895434878638_);}
	.st78{fill:url(#SVGID_00000002384398936454856450000003661858397009533343_);}
	.st79{fill:url(#SVGID_00000134931896927634853330000009047852784146302086_);}
	.st80{fill:url(#SVGID_00000027562972461336121510000013338724634176920454_);}
	.st81{fill:url(#SVGID_00000096061338579453881760000016317164071568941997_);}
	.st82{fill:url(#SVGID_00000128448468942519985130000013365043776126668437_);}
	.st83{fill:url(#SVGID_00000127757480609789553550000014354253173228650424_);}
	.st84{fill:url(#SVGID_00000021077523011738222230000009918979732461493690_);}
	.st85{opacity:0.49;fill:url(#SVGID_00000143613245829638176710000002234000037801181367_);}
	.st86{fill:url(#SVGID_00000048490910470250950080000013941173996745675933_);}
	.st87{opacity:0.49;fill:url(#SVGID_00000152237590591831079130000013983532919815252631_);}
	.st88{fill:url(#SVGID_00000121970488284500176200000004827719846803476907_);}
	.st89{fill:url(#SVGID_00000007391695915906243180000004169923671881285299_);}
	.st90{fill:url(#SVGID_00000178178848185320323370000014505438751300816037_);}
	.st91{opacity:0.49;fill:url(#SVGID_00000136403976757500990650000018226106363242947996_);}
	.st92{fill:url(#SVGID_00000140735076171305804510000016238156039689173384_);}
	.st93{fill:url(#SVGID_00000039815525799519656680000018168290467840238989_);}
	.st94{fill:url(#SVGID_00000068653474712744730440000010349499484347074741_);}
	.st95{fill:url(#SVGID_00000141456575128956205160000016882936721864377254_);}
	.st96{fill:url(#SVGID_00000168826752212055622750000008138484087511690132_);}
	.st97{fill:url(#SVGID_00000180347767805311254480000015803179809473902482_);}
	.st98{fill:url(#SVGID_00000034804311034811994220000011135507718878092179_);}
	.st99{fill:url(#SVGID_00000136383650485926393360000001273766823657238921_);}
	.st100{fill:url(#SVGID_00000175287453520343116680000001836446548009811629_);}
	.st101{fill:url(#SVGID_00000057865424948699708810000010976548168578363062_);}
	.st102{opacity:0.49;fill:url(#SVGID_00000041292466725306927270000005535014041937019796_);}
	.st103{fill:url(#SVGID_00000093137621222682023470000005995747373788385715_);}
	.st104{opacity:0.49;fill:url(#SVGID_00000098191168423243149460000016253365202603568057_);}
	.st105{fill:url(#SVGID_00000102540443898265968360000016107621854975758265_);}
	.st106{fill:url(#SVGID_00000042736172727246977690000014217909990075176620_);}
	.st107{fill:url(#SVGID_00000037656182966107146280000007183116556820578745_);}
	.st108{opacity:0.49;fill:url(#SVGID_00000047738896307702371380000004890939943356704441_);}
</style>
<g>
	<text transform="matrix(1 0 0 1 3712.2612 217.8118)" class="st38 st39 st40">©</text>
	<g>
		<path class="st0" d="M680.88,510.68c-0.05,0.16-0.11,0.32-0.18,0.48C680.78,510.91,680.84,510.75,680.88,510.68z"/>
		<path class="st20" d="M680.28,233.84C680.28,233.84,680.28,233.83,680.28,233.84"/>
		<path class="st20" d="M691.78,370.62C691.78,370.61,691.78,370.61,691.78,370.62c0-0.01,0-0.01,0-0.01c0-0.01,0-0.01,0-0.01"/>
		<g>
			<g>
				<g>
					<linearGradient id="SVGID_1_" gradientUnits="userSpaceOnUse" x1="118.264" y1="418.4926" x2="905.7111" y2="418.4926">
						<stop  offset="0" style="stop-color:#992D47"/>
						<stop  offset="0.2836" style="stop-color:#BA68BE"/>
						<stop  offset="0.4081" style="stop-color:#7A4AA9"/>
						<stop  offset="0.5126" style="stop-color:#493399"/>
						<stop  offset="0.6317" style="stop-color:#4E339A"/>
						<stop  offset="0.7743" style="stop-color:#5D339E"/>
						<stop  offset="0.9286" style="stop-color:#7532A3"/>
						<stop  offset="0.9674" style="stop-color:#7C32A5"/>
					</linearGradient>
					<path class="st2" d="M905.71,355.62c0,0.67,0,1.36-0.01,2.06c0,0,0,0,0,0.01c0,0,0,0,0,0.01c0,0,0,0,0,0.01
						c-0.35,2.12-18.53,110.49-35.37,141.99c-17.02,31.81-50.3,69.53-50.3,69.53s-48.84,59.9-129.41,101.09
						c-24.99,12.78-53.04,23.75-83.63,30.59c-106.21,23.71-182.25,5.44-220.34-6.34c-8.25-2.55-14.72-4.79-19.33-6.24
						c-14.64-4.6-74.05-21.03-152.57-79.42c-18.88-19.6-35.97-43.28-50.21-71.84c-28.53-57.23-42.46-113.57-46.28-165.93
						c2.35,9.03,5.09,17.92,8.19,26.63c32.45,135.27,151.33,248.51,309.29,277.72c56.59,10.46,112.36,9.06,164.24-2.33
						c0.01-0.01,0.01-0.01,0.02-0.01c4.57-1,9.12-2.07,13.63-3.24c0.02-0.01,0.04-0.01,0.05-0.01c16.02-4.12,31.64-9.19,46.75-15.18
						c109.35-43.27,192.48-133.88,213.94-249.93c4.58-24.78,6.12-49.48,4.87-73.78c-3.92-76.03-35.2-148.14-86.3-206.46
						c0.43,0.38,0.86,0.77,1.29,1.16c0.7,0.63,1.41,1.27,2.12,1.91c0.6,0.55,1.2,1.1,1.81,1.66c0.52,0.48,1.05,0.96,1.56,1.44
						c1.92,1.78,3.84,3.59,5.77,5.44c0.43,0.41,0.86,0.82,1.28,1.23c5.98,5.77,11.99,11.85,18.02,18.26
						c0.66,0.7,1.32,1.41,1.99,2.12c2.12,2.27,4.23,4.58,6.36,6.93c0.67,0.75,1.35,1.5,2.02,2.26c0.43,0.49,0.87,0.97,1.3,1.46
						c0.43,0.49,0.87,0.98,1.3,1.47c2.65,3,5.29,6.07,7.94,9.2c0.7,0.83,1.4,1.66,2.11,2.51c0.12,0.14,0.24,0.29,0.36,0.43
						c1.74,2.08,3.47,4.19,5.22,6.32c2.37,2.9,4.73,5.86,7.1,8.87c0.68,0.87,1.36,1.74,2.05,2.61c0.87,1.12,1.74,2.25,2.62,3.38
						c0.56,0.73,1.12,1.46,1.68,2.2c0.71,0.92,1.41,1.85,2.12,2.79c2.82,3.74,5.65,7.56,8.48,11.46c0.71,0.98,1.41,1.95,2.12,2.94
						c0.01,0,0.01,0.01,0.01,0.01c27.05,64.34,25.64,117.56,25.64,117.56S905.7,345.74,905.71,355.62z"/>
					
						<linearGradient id="SVGID_00000132070075245509134760000007598991041313682341_" gradientUnits="userSpaceOnUse" x1="126.4595" y1="372.5676" x2="879.6655" y2="372.5676">
						<stop  offset="0" style="stop-color:#A8487D"/>
						<stop  offset="0.2407" style="stop-color:#8F4FC8"/>
						<stop  offset="0.3664" style="stop-color:#8352EB"/>
						<stop  offset="0.641" style="stop-color:#B24BBF"/>
						<stop  offset="0.9599" style="stop-color:#5A46CC"/>
					</linearGradient>
					<path style="fill:url(#SVGID_00000132070075245509134760000007598991041313682341_);" d="M874.38,404.78
						c-34.73,187.87-231.12,309.06-438.63,270.69c-157.96-29.21-276.84-142.44-309.29-277.72c5.9,16.56,13.13,32.5,21.54,47.68
						c47.58,100.81,147.02,179.95,272.35,203.12c197.88,36.58,385.37-80.19,418.76-260.83c23.26-125.77-34.32-249.34-138.24-325.15
						c0.02,0.01,0.04,0.02,0.06,0.03c0.62,0.29,1.24,0.58,1.86,0.88c1.25,0.59,2.49,1.19,3.74,1.81c0.62,0.31,1.25,0.61,1.88,0.93
						c1.26,0.63,2.51,1.26,3.78,1.91c0.63,0.33,1.26,0.65,1.9,0.99c0.77,0.4,1.54,0.81,2.32,1.22c1.76,0.94,3.53,1.91,5.31,2.89
						c0.57,0.32,1.15,0.64,1.73,0.97c0.15,0.08,0.3,0.17,0.45,0.26c0.55,0.31,1.11,0.63,1.66,0.95c1.28,0.73,2.57,1.48,3.87,2.25
						c0.64,0.38,1.29,0.77,1.94,1.15c0.65,0.39,1.3,0.78,1.95,1.18c0.65,0.39,1.3,0.79,1.95,1.19c0.65,0.4,1.3,0.8,1.95,1.21
						c0.12,0.07,0.24,0.14,0.35,0.22c0.56,0.35,1.12,0.71,1.69,1.07c1.38,0.87,2.76,1.76,4.15,2.67c0.55,0.36,1.11,0.73,1.67,1.1
						c0.65,0.43,1.31,0.87,1.97,1.31c2.02,1.35,4.05,2.74,6.09,4.17c0.53,0.36,1.06,0.74,1.59,1.11c2.35,1.66,4.71,3.37,7.09,5.13
						c0.64,0.47,1.28,0.95,1.93,1.43c0.05,0.04,0.11,0.08,0.16,0.13c0.73,0.54,1.46,1.09,2.19,1.65c0.89,0.68,1.79,1.36,2.69,2.06
						c0.76,0.59,1.53,1.18,2.29,1.78c0.07,0.06,0.14,0.11,0.21,0.17c0.83,0.65,1.67,1.31,2.5,1.98c0.68,0.54,1.35,1.08,2.03,1.63
						c2.83,2.28,5.67,4.64,8.53,7.06c0.68,0.57,1.36,1.15,2.03,1.74c0.78,0.67,1.56,1.34,2.34,2.02c0.37,0.32,0.74,0.64,1.11,0.97
						c1.03,0.9,2.06,1.82,3.09,2.75h0.01C860.37,201.5,893.29,302.48,874.38,404.78z"/>
					
						<linearGradient id="SVGID_00000108995502969319172890000008545845701020741012_" gradientUnits="userSpaceOnUse" x1="237.3612" y1="39.2295" x2="237.3612" y2="608.895">
						<stop  offset="0" style="stop-color:#FF9943"/>
						<stop  offset="0.1715" style="stop-color:#FF6A43"/>
						<stop  offset="0.4862" style="stop-color:#973748"/>
						<stop  offset="0.6504" style="stop-color:#661F4B"/>
					</linearGradient>
					<path style="fill:url(#SVGID_00000108995502969319172890000008545845701020741012_);" d="M400.08,40.38
						c-2.54-0.02-5.04-0.01-7.51,0c-40.25,0.29-71.62,4.71-97.2,12.09c-48.46,12.87-77.42,36.89-103.68,64.64
						c-41.72,44.1-81.77,139.55-73.42,254.02c3.81,52.36,17.74,108.7,46.28,165.93c14.24,28.56,31.33,52.24,50.21,71.84
						c-20.07-14.91-41.38-32.58-63.51-53.47c-126.04-155.77-67.7-299.7-27.47-365.55c14.4-23.58,26.48-37.15,26.94-37.67
						c-6.06,4.7-13.77,13.14-21.65,22.75c-17.83,21.74-36.58,49.49-39.28,53.5l-0.06,0.1c-0.14,0.21-0.23,0.34-0.26,0.39
						c0.42-0.79,16.66-31.14,45.28-67.84c19.62-25.16,45.06-53.29,75.2-76.92C273.83,34.08,372.75,38.15,400.08,40.38z"/>
					
						<linearGradient id="SVGID_00000132062123863620428080000001611595544567135656_" gradientUnits="userSpaceOnUse" x1="658.8467" y1="614.9033" x2="658.8467" y2="43.0449">
						<stop  offset="0" style="stop-color:#6633B5"/>
						<stop  offset="0.1453" style="stop-color:#8463A5"/>
						<stop  offset="0.2599" style="stop-color:#998499"/>
						<stop  offset="0.5777" style="stop-color:#33E8E4"/>
						<stop  offset="0.615" style="stop-color:#35DFDF"/>
						<stop  offset="0.676" style="stop-color:#39C7D2"/>
						<stop  offset="0.7531" style="stop-color:#419FBC"/>
						<stop  offset="0.8423" style="stop-color:#4B689F"/>
						<stop  offset="0.9191" style="stop-color:#553382"/>
					</linearGradient>
					<path style="fill:url(#SVGID_00000132062123863620428080000001611595544567135656_);" d="M776.89,472.95
						C709.92,585.86,580,613.49,491.5,614.9c82.33-4.23,201.77-31.02,264.97-141.9c90.9-159.49,33.66-311.11-27.15-367.32
						c-32.24-29.8-68.53-54.67-139.98-62.64c82.07,6.47,124.19,31.53,159.3,62.72C811.91,161.96,871.46,313.53,776.89,472.95z"/>
					
						<linearGradient id="SVGID_00000067205195039402663600000002824948009563200415_" gradientUnits="userSpaceOnUse" x1="466.9021" y1="552.0081" x2="466.9021" y2="127.5781">
						<stop  offset="0" style="stop-color:#B18CD6"/>
						<stop  offset="0.2399" style="stop-color:#D34A92"/>
						<stop  offset="0.63" style="stop-color:#FF6641"/>
						<stop  offset="0.9449" style="stop-color:#FBD973"/>
						<stop  offset="0.9548" style="stop-color:#F6D470"/>
						<stop  offset="0.9671" style="stop-color:#E6C467"/>
						<stop  offset="0.9807" style="stop-color:#CDAB59"/>
						<stop  offset="0.9951" style="stop-color:#AA8845"/>
						<stop  offset="0.9977" style="stop-color:#A38141"/>
					</linearGradient>
					<path style="fill:url(#SVGID_00000067205195039402663600000002824948009563200415_);" d="M638.15,127.58
						c0,0-79.39,186.15-171.25,424.43c-91.85-238.28-171.25-424.43-171.25-424.43c35.9,0,70.47,32.19,82.68,60.52
						c15.71,36.44,88.57,210.69,88.57,210.69s72.86-174.25,88.57-210.69C567.69,159.77,602.25,127.58,638.15,127.58z"/>
					
						<linearGradient id="SVGID_00000122697960864030580860000014094988847725891739_" gradientUnits="userSpaceOnUse" x1="529.3854" y1="125.3562" x2="879.5625" y2="125.3562">
						<stop  offset="0" style="stop-color:#3CDBEA"/>
						<stop  offset="0.3794" style="stop-color:#663384"/>
						<stop  offset="0.5075" style="stop-color:#693885"/>
						<stop  offset="0.6521" style="stop-color:#714589"/>
						<stop  offset="0.8047" style="stop-color:#805C8F"/>
						<stop  offset="0.9619" style="stop-color:#937B97"/>
						<stop  offset="1" style="stop-color:#998499"/>
					</linearGradient>
					<path style="fill:url(#SVGID_00000122697960864030580860000014094988847725891739_);" d="M879.56,222.62
						c-0.71-0.99-1.41-1.96-2.12-2.94c-2.82-3.9-5.65-7.72-8.48-11.46c-0.7-0.93-1.41-1.87-2.12-2.79c-0.56-0.74-1.12-1.47-1.68-2.2
						c-0.88-1.14-1.75-2.26-2.62-3.38c-0.68-0.88-1.37-1.75-2.05-2.61c-2.37-3.01-4.73-5.97-7.1-8.87
						c-1.74-2.14-3.48-4.24-5.22-6.32c-0.12-0.15-0.24-0.29-0.36-0.43c-0.7-0.84-1.4-1.68-2.11-2.51c-2.65-3.13-5.3-6.2-7.94-9.2
						c-0.43-0.49-0.87-0.98-1.3-1.47c-0.43-0.49-0.87-0.98-1.3-1.46c-0.68-0.76-1.35-1.51-2.02-2.26c-2.12-2.35-4.24-4.66-6.36-6.93
						c-0.66-0.71-1.32-1.42-1.99-2.12c-6.03-6.41-12.04-12.49-18.02-18.26c-0.43-0.41-0.86-0.82-1.28-1.23
						c-1.92-1.85-3.85-3.66-5.77-5.44c-0.52-0.49-1.04-0.97-1.56-1.44c-0.6-0.55-1.2-1.11-1.81-1.66c-0.71-0.64-1.41-1.28-2.12-1.91
						c-0.43-0.39-0.87-0.78-1.29-1.16h-0.01c-1.03-0.93-2.06-1.84-3.09-2.75c-0.37-0.33-0.74-0.65-1.11-0.97
						c-0.78-0.68-1.56-1.36-2.34-2.02c-0.68-0.59-1.36-1.17-2.03-1.74c-2.86-2.43-5.7-4.78-8.53-7.06
						c-0.68-0.55-1.36-1.09-2.03-1.63c-0.83-0.67-1.67-1.33-2.5-1.98c-0.07-0.06-0.14-0.11-0.21-0.17c-0.76-0.6-1.53-1.19-2.29-1.78
						c-0.9-0.7-1.8-1.38-2.69-2.06c-0.73-0.56-1.46-1.11-2.19-1.65c-0.06-0.05-0.11-0.08-0.16-0.13c-0.64-0.48-1.29-0.96-1.93-1.43
						c-2.38-1.76-4.74-3.46-7.09-5.13c-0.53-0.37-1.06-0.75-1.59-1.11c-2.04-1.43-4.07-2.82-6.09-4.17
						c-0.66-0.44-1.32-0.88-1.97-1.31c-0.56-0.37-1.11-0.74-1.67-1.1c-1.39-0.91-2.77-1.8-4.15-2.67c-0.56-0.36-1.12-0.72-1.69-1.07
						c-0.12-0.08-0.24-0.15-0.35-0.22c-0.65-0.41-1.3-0.82-1.95-1.21c-0.65-0.4-1.3-0.8-1.95-1.19c-0.65-0.4-1.3-0.79-1.95-1.18
						c-0.64-0.39-1.29-0.77-1.94-1.15c-1.3-0.77-2.59-1.52-3.87-2.25c-0.55-0.32-1.11-0.64-1.66-0.95
						c-0.15-0.09-0.31-0.17-0.45-0.26c-0.58-0.33-1.15-0.65-1.73-0.97c-1.78-0.99-3.55-1.95-5.31-2.89
						c-0.78-0.42-1.55-0.82-2.32-1.22c-0.63-0.34-1.27-0.67-1.9-0.99c-1.26-0.65-2.52-1.29-3.78-1.91
						c-0.63-0.32-1.26-0.62-1.88-0.93c-1.25-0.62-2.5-1.22-3.74-1.81c-0.63-0.3-1.25-0.59-1.86-0.88c-1.05-0.49-2.09-0.97-3.12-1.43
						c-0.88-0.4-1.76-0.8-2.63-1.18c-0.55-0.24-1.1-0.48-1.64-0.72c-2.38-1.03-4.74-2.03-7.09-2.98c-0.68-0.27-1.36-0.54-2.03-0.81
						c-0.6-0.24-1.2-0.48-1.8-0.7c-1.2-0.47-2.4-0.93-3.59-1.37c-0.6-0.22-1.19-0.44-1.78-0.66c-0.6-0.22-1.19-0.43-1.78-0.64
						c-0.59-0.22-1.18-0.43-1.77-0.63c-2.36-0.83-4.7-1.63-7.03-2.37c-0.51-0.17-1.02-0.33-1.52-0.49c-3-0.95-5.97-1.83-8.9-2.65
						c-0.54-0.16-1.08-0.31-1.61-0.45c-1.13-0.31-2.25-0.61-3.37-0.9c-0.56-0.15-1.12-0.3-1.68-0.43c-0.56-0.14-1.11-0.29-1.67-0.42
						c-0.55-0.14-1.11-0.27-1.66-0.4c-0.55-0.14-1.1-0.26-1.65-0.39c-0.55-0.13-1.1-0.26-1.65-0.38c-0.46-0.11-0.93-0.21-1.39-0.31
						c-0.68-0.15-1.36-0.3-2.04-0.44c-0.49-0.1-0.98-0.21-1.46-0.3c-2.22-0.46-4.41-0.88-6.58-1.27c-0.87-0.16-1.73-0.31-2.59-0.45
						c-0.07-0.02-0.15-0.03-0.23-0.04c-0.91-0.16-1.81-0.3-2.71-0.44c-0.31-0.05-0.62-0.1-0.92-0.14c-1.72-0.27-3.43-0.51-5.13-0.73
						c-0.96-0.13-1.91-0.25-2.86-0.36c-0.95-0.12-1.89-0.23-2.83-0.33c-0.93-0.1-1.87-0.2-2.79-0.29c-0.01,0-0.02,0-0.02,0
						c-1.66-0.16-3.29-0.31-4.92-0.43c-0.01,0-0.02-0.01-0.03,0c-0.45-0.04-0.91-0.07-1.36-0.1c-0.13-0.02-0.26-0.03-0.4-0.03
						c-1.4-0.1-2.8-0.19-4.18-0.26c-0.69-0.04-1.37-0.07-2.04-0.1c-0.83-0.04-1.66-0.07-2.48-0.1c-0.53-0.02-1.06-0.04-1.59-0.05
						c-0.69-0.02-1.37-0.04-2.04-0.05c-0.74-0.02-1.47-0.03-2.2-0.03c-0.84-0.01-1.67-0.02-2.5-0.02c-17.04,0-31.61,1.84-43.14,4.11
						h-0.01c-4.91-0.06-9.96-0.06-15.14,0c0,0,70.19-32.73,173.47,8.51c25.4,10.14,52.22,24.04,78.59,44.85
						C831.95,133.61,861.86,180.5,879.56,222.62z"/>
					
						<linearGradient id="SVGID_00000082349020186093922800000000615159812131926658_" gradientUnits="userSpaceOnUse" x1="227.5281" y1="28.4879" x2="227.5281" y2="563.5588">
						<stop  offset="0" style="stop-color:#FF9943"/>
						<stop  offset="0.1522" style="stop-color:#CC4D43"/>
						<stop  offset="0.5495" style="stop-color:#743048"/>
						<stop  offset="0.7936" style="stop-color:#431F4B"/>
					</linearGradient>
					<path style="fill:url(#SVGID_00000082349020186093922800000000615159812131926658_);" d="M406,38.37
						c0.17,0.07,11.95,4.57,11.63,4.56c-1.13-0.01-16.42-2.55-17.54-2.55h-0.02c-27.33-2.23-126.25-6.3-190.14,43.79
						C135.83,142.3,90.17,227.6,89.47,228.94c0.72-1.09,40.56-60.71,61.25-76.73c-1.76,1.97-170.63,191.68,0.53,403.22
						c2.19,2.71,4.44,5.42,6.74,8.14c-0.78-0.81-1.55-1.62-2.31-2.43l-0.12-0.12c-0.77-0.82-1.54-1.64-2.31-2.45
						c-1.66-1.76-3.3-3.53-4.92-5.28c-1.4-1.53-2.8-3.05-4.19-4.57c-0.04-0.05-0.08-0.1-0.13-0.14c-1.52-1.66-3.01-3.33-4.5-4.99
						c-1.87-2.09-3.73-4.18-5.56-6.26c-0.67-0.76-1.33-1.51-1.99-2.27c-0.44-0.5-0.88-1-1.32-1.5c-0.69-0.79-1.39-1.59-2.07-2.39
						c-2.15-2.47-4.27-4.94-6.37-7.39c-1.4-1.64-2.8-3.29-4.18-4.96c-36.34-43.63-67.33-96.13-77.71-148.73
						c-0.15-0.73-0.29-1.45-0.42-2.18c-0.09-0.48-0.17-0.96-0.26-1.43c-0.94-5.25-1.67-10.5-2.18-15.73
						C36.82,166.92,194.42,67.25,209.96,57.87c0.01-0.01,0.02-0.01,0.02-0.01C303.2,13.36,385.56,30.56,406,38.37z"/>
					
						<linearGradient id="SVGID_00000041257399963426268720000017798756548380328346_" gradientUnits="userSpaceOnUse" x1="151.242" y1="539.4802" x2="905.7072" y2="539.4802">
						<stop  offset="0.0688" style="stop-color:#501485"/>
						<stop  offset="0.5582" style="stop-color:#291449"/>
						<stop  offset="1" style="stop-color:#6633B5"/>
					</linearGradient>
					<path style="fill:url(#SVGID_00000041257399963426268720000017798756548380328346_);" d="M905.71,357.7
						c-0.12,26.2-3.6,78.92-25.54,138.32c0,0-0.01,0.01-0.01,0.01c-0.05,0.16-0.11,0.32-0.17,0.48c0,0.01-0.01,0.02-0.01,0.02
						c-0.13,0.34-0.25,0.68-0.37,1.02c-0.01,0.03-0.03,0.06-0.04,0.09c-8.77,21.5-123.54,222.44-343,223.63
						c-3.23,0.02-6.44,0.01-9.62-0.02c-1.38-0.01-2.76-0.03-4.13-0.05c-0.41-0.01-0.81-0.01-1.21-0.02
						c-1.06-0.02-2.12-0.03-3.18-0.06c-0.78-0.02-1.56-0.03-2.34-0.05c-0.74-0.02-1.48-0.04-2.22-0.06
						c-0.83-0.02-1.66-0.05-2.49-0.07c-0.61-0.02-1.22-0.04-1.83-0.06c-1.07-0.03-2.14-0.07-3.2-0.12c-2.88-0.11-5.73-0.24-8.57-0.4
						c-0.71-0.04-1.43-0.07-2.14-0.12c-1.04-0.05-2.08-0.12-3.12-0.18c-1.59-0.09-3.18-0.2-4.76-0.31c-0.1-0.01-0.2-0.01-0.29-0.02
						c-1.55-0.11-3.09-0.22-4.62-0.34c-1.37-0.1-2.73-0.21-4.09-0.33c-0.42-0.04-0.84-0.07-1.26-0.11
						c-0.67-0.05-1.33-0.11-1.99-0.17c-0.92-0.08-1.85-0.16-2.77-0.25c-3.21-0.3-6.4-0.63-9.56-0.98c-1.22-0.14-2.44-0.27-3.65-0.42
						c-0.2-0.03-0.4-0.05-0.6-0.07c-1.22-0.14-2.44-0.29-3.66-0.45c-0.45-0.05-0.89-0.11-1.34-0.17c-0.84-0.11-1.69-0.21-2.53-0.33
						c-0.62-0.08-1.24-0.16-1.85-0.24c-1.26-0.17-2.51-0.35-3.75-0.52c-0.06-0.01-0.12-0.02-0.18-0.03
						c-1.49-0.21-2.97-0.43-4.44-0.65c-0.07-0.01-0.15-0.02-0.22-0.03c-1.41-0.22-2.82-0.43-4.22-0.66
						c-1.47-0.23-2.95-0.48-4.41-0.72c-1.21-0.2-2.42-0.41-3.62-0.62c-0.71-0.12-1.42-0.25-2.13-0.37c-0.6-0.11-1.2-0.22-1.8-0.33
						c-0.62-0.11-1.25-0.23-1.86-0.34c-0.83-0.15-1.65-0.31-2.48-0.48c-0.64-0.12-1.29-0.24-1.93-0.37
						c-0.24-0.05-0.49-0.09-0.73-0.14c-1.07-0.21-2.14-0.43-3.2-0.64c-2.47-0.5-4.92-1.02-7.35-1.55c-1.09-0.24-2.18-0.48-3.25-0.73
						c-0.15-0.03-0.3-0.06-0.45-0.1c-0.71-0.16-1.41-0.32-2.11-0.49c-0.83-0.19-1.67-0.39-2.5-0.59c-0.46-0.11-0.91-0.22-1.37-0.33
						c-0.65-0.15-1.31-0.31-1.96-0.48c-0.78-0.18-1.55-0.38-2.32-0.58c-0.36-0.08-0.72-0.17-1.08-0.27
						c-0.86-0.21-1.72-0.43-2.57-0.65c-0.27-0.07-0.54-0.14-0.8-0.21c-0.94-0.24-1.88-0.49-2.81-0.74
						c-1.66-0.44-3.32-0.89-4.96-1.35c-0.81-0.22-1.63-0.45-2.44-0.68c-1.63-0.46-3.24-0.93-4.85-1.4c-0.9-0.26-1.81-0.53-2.7-0.81
						c-0.62-0.18-1.25-0.37-1.86-0.56c-0.13-0.04-0.26-0.08-0.39-0.12c-1.06-0.32-2.11-0.65-3.16-0.98
						c-3.35-1.05-6.65-2.13-9.92-3.24c-1.07-0.36-2.12-0.72-3.18-1.09c-1.08-0.37-2.15-0.75-3.22-1.13
						c-1.02-0.36-2.05-0.73-3.06-1.1c-0.1-0.04-0.18-0.07-0.27-0.1c-1.01-0.37-2.02-0.74-3.03-1.11c-1.06-0.39-2.1-0.79-3.15-1.18
						c-2.09-0.8-4.17-1.6-6.22-2.42c-1.03-0.41-2.05-0.82-3.07-1.24c-0.84-0.34-1.69-0.69-2.53-1.03c-0.27-0.11-0.54-0.22-0.8-0.33
						c-0.92-0.38-1.84-0.77-2.76-1.16c-1.01-0.43-2.01-0.86-3.01-1.29c-0.92-0.4-1.84-0.8-2.76-1.2c-0.33-0.15-0.65-0.29-0.97-0.43
						c-0.74-0.33-1.48-0.66-2.22-0.99c-1.97-0.89-3.93-1.78-5.87-2.69c-0.84-0.4-1.69-0.79-2.53-1.19c-0.2-0.09-0.4-0.18-0.6-0.29
						c-0.66-0.31-1.32-0.63-1.98-0.95c-0.33-0.16-0.67-0.32-1-0.48c-0.84-0.41-1.69-0.83-2.53-1.24c-0.18-0.09-0.37-0.18-0.56-0.28
						c-0.41-0.2-0.81-0.4-1.21-0.6c-0.63-0.32-1.3-0.65-2.01-1.01c-0.24-0.12-0.48-0.24-0.72-0.36c-0.73-0.37-1.5-0.77-2.31-1.18
						c-0.27-0.14-0.54-0.28-0.82-0.42c-0.24-0.13-0.49-0.25-0.72-0.37c-0.73-0.38-1.49-0.78-2.28-1.19
						c-0.84-0.44-1.72-0.91-2.62-1.39c-0.23-0.12-0.45-0.24-0.68-0.36c-0.71-0.37-1.41-0.76-2.12-1.14
						c-0.69-0.37-1.39-0.76-2.11-1.15c-0.3-0.16-0.6-0.33-0.9-0.5c-0.5-0.27-0.99-0.55-1.47-0.82c-0.38-0.21-0.75-0.42-1.14-0.64
						c-1.98-1.11-3.94-2.24-5.89-3.37c-0.89-0.52-1.77-1.04-2.65-1.56c-0.61-0.35-1.21-0.71-1.81-1.08
						c-1.77-1.06-3.54-2.13-5.28-3.21c-0.89-0.55-1.77-1.1-2.66-1.65c-1.17-0.73-2.33-1.47-3.48-2.21c-1.01-0.65-2.03-1.3-3.04-1.96
						c-0.89-0.58-1.78-1.16-2.66-1.75c-1.25-0.82-2.48-1.64-3.71-2.47c-0.86-0.58-1.72-1.16-2.57-1.75
						c-0.84-0.57-1.67-1.15-2.5-1.72c-1.13-0.78-2.25-1.57-3.36-2.35c-0.95-0.67-1.9-1.35-2.84-2.02c-0.94-0.68-1.87-1.35-2.81-2.03
						c-0.01-0.01-0.03-0.02-0.04-0.03c-0.89-0.65-1.78-1.3-2.67-1.96c-0.99-0.73-1.97-1.47-2.95-2.2c-1.86-1.39-3.7-2.8-5.52-4.21
						c-0.68-0.52-1.35-1.04-2.01-1.56c-1.34-1.04-2.66-2.09-3.97-3.13c-0.6-0.48-1.19-0.96-1.79-1.44c-1.01-0.81-2.01-1.62-3-2.43
						c-0.88-0.72-1.76-1.44-2.63-2.16c-0.73-0.61-1.47-1.21-2.19-1.82c-1.01-0.84-2.01-1.69-3-2.53c-0.86-0.73-1.71-1.46-2.56-2.19
						c-0.86-0.73-1.7-1.47-2.54-2.2c-0.88-0.76-1.74-1.52-2.61-2.29c-0.81-0.71-1.61-1.43-2.41-2.14c-2.49-2.22-4.94-4.45-7.37-6.69
						c-0.71-0.65-1.41-1.31-2.12-1.96c-0.1-0.1-0.2-0.18-0.3-0.28c-0.8-0.75-1.6-1.5-2.39-2.25c-0.8-0.75-1.59-1.5-2.38-2.25
						c-0.62-0.59-1.23-1.18-1.84-1.76l-0.51-0.49c-0.78-0.76-1.56-1.51-2.33-2.27c-4.12-4.02-8.16-8.06-12.1-12.1
						c-1.08-1.1-2.15-2.21-3.21-3.32c-0.54-0.55-1.07-1.1-1.59-1.66c-2.3-2.71-4.55-5.43-6.74-8.14
						c22.13,20.9,43.44,38.56,63.51,53.47c78.52,58.39,137.94,74.82,152.57,79.42c4.61,1.45,11.08,3.69,19.33,6.24
						c38.09,11.78,114.14,30.05,220.34,6.34c129.21-28.85,213.04-131.67,213.04-131.67s39.6-52.16,52.84-85.72
						C893.65,430.84,905.36,359.82,905.71,357.7z"/>
					
						<linearGradient id="SVGID_00000004545368774629623130000008616115984036172980_" gradientUnits="userSpaceOnUse" x1="313.8987" y1="539.9676" x2="225.8863" y2="698.7056">
						<stop  offset="0.5582" style="stop-color:#291449"/>
						<stop  offset="1" style="stop-color:#6633B5"/>
					</linearGradient>
					<path style="fill:url(#SVGID_00000004545368774629623130000008616115984036172980_);" d="M648.3,726.48
						c-24,9.55-47.76,16.66-70.75,21.86c-40.18,9.1-78.01,12.38-110.65,12.68c-32.65-0.31-70.48-3.58-110.66-12.68
						c-53.15-12.03-110.42-34.25-165.28-73.23C10.44,546.81,28.61,340.18,28.61,340.18s-0.18-7.03,0.88-19.06
						c3.76-42.77,23.28-148.76,122.88-227.34c19.23-15.17,38.6-26.9,57.6-35.91C194.42,67.25,36.82,166.92,37.42,350.73
						c0.04,14.5,1.07,29.52,3.24,45.06C70.18,607.94,352.71,803.83,648.3,726.48z"/>
					
						<linearGradient id="SVGID_00000121280543135009102240000001404120575926906028_" gradientUnits="userSpaceOnUse" x1="156.4181" y1="94.7986" x2="6.3593" y2="365.4426">
						<stop  offset="0" style="stop-color:#FF9943"/>
						<stop  offset="0.1715" style="stop-color:#FF6A43"/>
						<stop  offset="0.297" style="stop-color:#D65A44"/>
						<stop  offset="0.6876" style="stop-color:#5A2848"/>
						<stop  offset="0.8597" style="stop-color:#291449"/>
					</linearGradient>
					<path style="fill:url(#SVGID_00000121280543135009102240000001404120575926906028_);" d="M209.95,58.29
						C194.72,67.48,43.05,163.39,37.56,340.22h-8.98c-0.02-1.62-0.04-8.28,0.88-18.68c3.76-42.77,23.28-148.76,122.88-227.34
						C171.59,79.03,190.95,67.3,209.95,58.29z"/>
					
						<linearGradient id="SVGID_00000024002103611289397430000005275127309102467237_" gradientUnits="userSpaceOnUse" x1="37.4183" y1="506.3513" x2="282.7788" y2="506.3513">
						<stop  offset="0.2721" style="stop-color:#CC99FF"/>
						<stop  offset="0.879" style="stop-color:#6633B5;stop-opacity:0"/>
					</linearGradient>
					<path style="opacity:0.49;fill:url(#SVGID_00000024002103611289397430000005275127309102467237_);" d="M282.78,661.98
						c-38.03-20.85-114.67-68.86-171.64-144.82C73.85,467.44,63,446.15,50.94,412.18c-3.66-10.33-7.56-24.64-8.64-28.96
						c-4.64-18.58-4.88-32.49-4.88-32.49c5.41,58.3,42.14,123.19,84.76,173.03C163.13,571.63,212.91,623.44,282.78,661.98z"/>
					
						<linearGradient id="SVGID_00000177466142331493128750000011537780257469169342_" gradientUnits="userSpaceOnUse" x1="37.4183" y1="547.2197" x2="879.5677" y2="547.2197">
						<stop  offset="0.5582" style="stop-color:#291449"/>
						<stop  offset="1" style="stop-color:#6633B5"/>
					</linearGradient>
					<path style="fill:url(#SVGID_00000177466142331493128750000011537780257469169342_);" d="M879.57,497.63
						c-22.18,59.25-62.79,124.93-136.73,177.48c-31.13,22.13-63.04,38.85-94.54,51.37c-1.41,0.37-2.82,0.73-4.22,1.09
						c-1.19,0.3-2.38,0.6-3.56,0.89c-0.93,0.23-1.86,0.45-2.8,0.68c-0.32,0.08-0.64,0.16-0.96,0.23c-1.18,0.28-2.36,0.56-3.54,0.83
						c-0.01,0-0.01,0.01-0.02,0.01c-1.25,0.29-2.49,0.57-3.73,0.84c-1.25,0.28-2.49,0.55-3.74,0.82c-1.25,0.27-2.49,0.53-3.74,0.79
						c-1.25,0.26-2.5,0.52-3.74,0.77c-2.49,0.5-4.98,0.98-7.47,1.44c-1.21,0.23-2.42,0.45-3.63,0.66c-0.04,0.01-0.08,0.02-0.13,0.03
						c-0.79,0.14-1.58,0.28-2.38,0.42c-0.7,0.13-1.41,0.25-2.12,0.36c-1.14,0.2-2.28,0.38-3.42,0.57c-0.95,0.15-1.9,0.31-2.85,0.45
						c-0.26,0.04-0.51,0.08-0.77,0.12c-1.12,0.17-2.24,0.34-3.35,0.51c-2.31,0.34-4.62,0.67-6.92,0.99
						c-1.42,0.19-2.84,0.37-4.26,0.56c-3.57,0.45-7.13,0.87-10.69,1.25c-0.22,0.02-0.44,0.05-0.67,0.07
						c-1.1,0.12-2.21,0.23-3.32,0.34c-0.06,0.01-0.12,0.01-0.17,0.02c-1.26,0.12-2.52,0.24-3.78,0.35
						c-1.18,0.11-2.37,0.22-3.55,0.32c-1.23,0.1-2.46,0.2-3.69,0.3c-3.69,0.29-7.37,0.53-11.03,0.73c-1.22,0.07-2.45,0.13-3.67,0.19
						c-2.44,0.12-4.89,0.22-7.33,0.31c-1.15,0.04-2.3,0.07-3.44,0.11c-0.12,0-0.24,0.01-0.36,0.01c-3.61,0.1-7.2,0.16-10.79,0.18
						c-7.33,0.05-14.62-0.05-21.88-0.31l-2.6-0.1c-1.73-0.07-3.45-0.15-5.18-0.23c-7.76-0.39-15.48-0.95-23.15-1.66
						c-4.16-0.39-8.3-0.83-12.43-1.31c-0.1-0.02-0.21-0.03-0.31-0.04c-5.08-0.6-10.13-1.28-15.16-2.02
						c-1.68-0.25-3.35-0.51-5.02-0.77c-2.51-0.4-5.01-0.81-7.5-1.24c-4.99-0.86-9.96-1.79-14.89-2.79c-2.47-0.5-4.93-1.01-7.39-1.55
						c-0.82-0.18-1.64-0.36-2.46-0.54c-0.82-0.18-1.63-0.36-2.45-0.55c-0.81-0.18-1.63-0.37-2.44-0.56
						c-0.88-0.21-1.76-0.41-2.64-0.62c-1.5-0.36-3-0.72-4.49-1.09c-0.88-0.22-1.76-0.43-2.63-0.65c-1.6-0.41-3.2-0.81-4.79-1.23
						c-0.81-0.21-1.61-0.42-2.41-0.64c-0.8-0.21-1.61-0.43-2.4-0.64c-1.6-0.44-3.2-0.88-4.8-1.33c-0.8-0.23-1.59-0.45-2.39-0.68
						c-1.59-0.45-3.18-0.92-4.77-1.39c-3.17-0.94-6.32-1.91-9.47-2.9c-0.04-0.01-0.07-0.02-0.11-0.03c-3.1-0.99-6.2-2-9.28-3.04
						c-1.55-0.52-3.11-1.06-4.66-1.59c-1.51-0.53-3.02-1.06-4.53-1.59c-0.1-0.04-0.2-0.07-0.31-0.11
						c-4.56-1.63-9.08-3.32-13.56-5.07c-1.52-0.59-3.03-1.19-4.54-1.79c-3.02-1.21-6.02-2.44-9.01-3.7
						c-1.49-0.63-2.98-1.27-4.47-1.91c-2.97-1.28-5.92-2.59-8.86-3.92c-1.47-0.67-2.93-1.34-4.39-2.02
						c-4.38-2.03-8.72-4.12-13.01-6.26c-1.43-0.71-2.86-1.43-4.29-2.16c-2.85-1.45-5.68-2.92-8.48-4.42
						c-4.21-2.24-8.38-4.53-12.5-6.87c-0.02-0.01-0.05-0.03-0.08-0.04c-4.11-2.34-8.17-4.72-12.2-7.15
						c-1.35-0.82-2.69-1.64-4.03-2.46c-1.34-0.82-2.67-1.65-4-2.49c-2.66-1.67-5.28-3.36-7.9-5.07c-1.31-0.86-2.61-1.72-3.91-2.58
						c-2.59-1.73-5.16-3.48-7.71-5.25c-1.28-0.89-2.54-1.78-3.81-2.67c-1.27-0.9-2.52-1.8-3.78-2.7c-1.25-0.9-2.5-1.82-3.74-2.73
						c-1.24-0.91-2.48-1.83-3.71-2.76c-1.85-1.39-3.68-2.78-5.5-4.19c-0.6-0.46-1.21-0.93-1.82-1.41c-1.2-0.95-2.41-1.89-3.61-2.84
						c-0.6-0.48-1.19-0.96-1.79-1.43c-1.19-0.96-2.38-1.92-3.55-2.88c-1.18-0.97-2.35-1.94-3.52-2.91
						c-0.58-0.49-1.16-0.98-1.74-1.46c-1.63-1.37-3.24-2.75-4.84-4.13c-0.69-0.59-1.38-1.19-2.06-1.8c-0.56-0.5-1.14-0.99-1.7-1.49
						c-0.13-0.12-0.26-0.23-0.39-0.34c-1-0.89-2-1.77-2.98-2.67c-1.16-1.05-2.31-2.09-3.46-3.15c-1.07-0.98-2.12-1.96-3.18-2.95
						c-0.54-0.51-1.09-1.02-1.64-1.54c-1.09-1.03-2.17-2.06-3.25-3.1c-1.61-1.55-3.21-3.11-4.8-4.69c-0.52-0.52-1.05-1.05-1.58-1.57
						c-0.52-0.53-1.05-1.05-1.57-1.58c-0.52-0.53-1.05-1.06-1.56-1.59c-2.07-2.11-4.12-4.24-6.15-6.4
						c-0.51-0.53-1.01-1.07-1.51-1.61c-2.51-2.69-4.98-5.41-7.41-8.15c-0.49-0.55-0.97-1.1-1.45-1.65c-0.49-0.55-0.97-1.1-1.44-1.65
						c-0.48-0.55-0.95-1.1-1.43-1.65c-1.42-1.66-2.84-3.33-4.23-5.01c-0.83-1-1.66-2.01-2.49-3.01c-1.99-2.43-3.94-4.88-5.88-7.34
						c-0.82-1.06-1.64-2.12-2.46-3.18c-0.43-0.57-0.87-1.15-1.3-1.72s-0.87-1.15-1.29-1.72c-0.43-0.58-0.86-1.15-1.28-1.72
						c-0.39-0.52-0.78-1.05-1.16-1.57c-0.88-1.2-1.76-2.41-2.63-3.63c-0.41-0.58-0.83-1.16-1.24-1.74
						c-0.42-0.59-0.83-1.18-1.25-1.77c-1.21-1.74-2.41-3.48-3.6-5.23c-0.4-0.59-0.79-1.17-1.18-1.76c-0.79-1.18-1.57-2.35-2.34-3.53
						c-0.39-0.59-0.77-1.18-1.15-1.77c-0.38-0.59-0.76-1.18-1.14-1.78c-0.37-0.59-0.75-1.18-1.13-1.78
						c-2.24-3.56-4.42-7.15-6.53-10.76c-0.7-1.2-1.4-2.41-2.09-3.62c-0.69-1.21-1.37-2.42-2.04-3.63c-0.34-0.61-0.67-1.21-1-1.82
						c-0.33-0.61-0.66-1.21-0.99-1.82c-0.98-1.83-1.95-3.65-2.9-5.49c-0.95-1.83-1.87-3.67-2.79-5.52
						c-0.31-0.61-0.61-1.23-0.91-1.85c-1.2-2.46-2.37-4.93-3.5-7.41c-0.28-0.62-0.56-1.24-0.84-1.86c-0.27-0.62-0.55-1.24-0.83-1.86
						c-0.55-1.25-1.09-2.49-1.63-3.73c-0.27-0.62-0.53-1.25-0.8-1.87c-0.52-1.24-1.03-2.48-1.55-3.73c0-0.01,0-0.02-0.01-0.02
						c-0.51-1.25-1.01-2.51-1.5-3.76c-0.24-0.62-0.48-1.24-0.72-1.85c-0.25-0.64-0.49-1.28-0.73-1.93c-0.48-1.26-0.94-2.52-1.4-3.78
						c-0.23-0.63-0.45-1.26-0.68-1.9c-0.22-0.63-0.44-1.26-0.67-1.9c-0.22-0.63-0.44-1.27-0.65-1.9c-0.43-1.27-0.86-2.53-1.27-3.8
						c-0.62-1.91-1.22-3.81-1.81-5.72c-0.2-0.64-0.39-1.27-0.58-1.91c-0.02-0.05-0.03-0.07-0.03-0.07
						c-0.78-2.61-1.52-5.23-2.22-7.85c-0.24-0.88-0.46-1.75-0.69-2.62c-0.23-0.88-0.45-1.75-0.67-2.62
						c-0.22-0.88-0.43-1.75-0.64-2.63c-0.63-2.63-1.22-5.26-1.77-7.9c-0.18-0.88-0.36-1.76-0.54-2.64
						c-0.17-0.88-0.35-1.76-0.51-2.64c-0.51-2.68-0.98-5.37-1.4-8.06c-0.11-0.67-0.21-1.34-0.31-2.01
						c-0.16-1.06-0.31-2.11-0.46-3.17c-2.16-15.54-3.19-30.56-3.24-45.06c0,0,0.25,13.91,4.88,32.49
						c1.08,4.32,4.98,18.64,8.64,28.96c12.05,33.97,22.91,55.26,60.19,104.98c56.97,75.96,133.61,123.97,171.64,144.82
						c0.72,0.4,1.43,0.78,2.11,1.15c0.93,0.51,1.86,1.01,2.8,1.51c0.9,0.48,1.78,0.95,2.62,1.39c1,0.52,1.99,1.05,3,1.57
						c0.27,0.14,0.55,0.28,0.82,0.42c1.01,0.53,2.02,1.04,3.04,1.55c0.71,0.36,1.38,0.7,2.01,1.01c0.4,0.21,0.81,0.41,1.21,0.6
						c0.19,0.1,0.38,0.19,0.56,0.28c0.84,0.41,1.68,0.83,2.53,1.24c0.33,0.16,0.67,0.32,1,0.48c0.66,0.32,1.32,0.63,1.98,0.95
						c0.2,0.1,0.4,0.2,0.6,0.29c0.84,0.4,1.68,0.8,2.53,1.19c1.94,0.9,3.89,1.8,5.87,2.69c0.73,0.33,1.47,0.66,2.22,0.99
						c0.32,0.14,0.64,0.29,0.97,0.43c0.92,0.4,1.84,0.8,2.76,1.2c1,0.43,2,0.86,3.01,1.29c0.91,0.39,1.83,0.78,2.76,1.16
						c0.26,0.11,0.53,0.22,0.8,0.33c0.84,0.35,1.68,0.69,2.53,1.03c1.02,0.42,2.04,0.83,3.07,1.24c2.06,0.82,4.13,1.63,6.22,2.42
						c1.05,0.4,2.09,0.79,3.15,1.18c1,0.37,2.01,0.74,3.03,1.11c0.08,0.03,0.17,0.06,0.27,0.1c1.01,0.37,2.04,0.73,3.06,1.1
						c1.07,0.38,2.14,0.76,3.22,1.13c1.06,0.37,2.11,0.73,3.18,1.09c3.27,1.11,6.57,2.19,9.92,3.24c1.05,0.33,2.1,0.66,3.16,0.98
						c0.13,0.04,0.26,0.08,0.39,0.12c0.62,0.19,1.24,0.38,1.86,0.56c0.9,0.27,1.8,0.54,2.7,0.81c1.61,0.48,3.23,0.95,4.85,1.4
						c0.81,0.23,1.63,0.46,2.44,0.68c1.65,0.46,3.3,0.91,4.96,1.35c0.93,0.25,1.87,0.5,2.81,0.74c0.26,0.07,0.53,0.14,0.8,0.21
						c0.86,0.22,1.71,0.44,2.57,0.65c0.36,0.1,0.72,0.18,1.08,0.27c0.77,0.2,1.55,0.39,2.32,0.58c0.65,0.16,1.31,0.32,1.96,0.48
						c0.45,0.11,0.91,0.22,1.37,0.33c0.83,0.2,1.66,0.4,2.5,0.59c0.7,0.16,1.4,0.33,2.11,0.49c0.15,0.04,0.3,0.07,0.45,0.1
						c1.08,0.25,2.16,0.49,3.25,0.73c2.43,0.53,4.88,1.05,7.35,1.55c1.07,0.22,2.13,0.43,3.2,0.64c0.24,0.05,0.49,0.1,0.73,0.14
						c0.64,0.13,1.28,0.25,1.93,0.37c0.82,0.16,1.65,0.32,2.48,0.48c0.62,0.12,1.24,0.23,1.86,0.34c0.6,0.11,1.2,0.22,1.8,0.33
						c0.71,0.13,1.41,0.25,2.13,0.37c1.2,0.21,2.41,0.42,3.62,0.62c1.46,0.25,2.94,0.49,4.41,0.72c1.4,0.23,2.81,0.44,4.22,0.66
						c0.07,0.01,0.15,0.02,0.22,0.03c1.47,0.22,2.95,0.44,4.44,0.65c0.06,0.01,0.12,0.02,0.18,0.03c1.25,0.17,2.5,0.35,3.75,0.52
						c0.61,0.08,1.23,0.16,1.85,0.24c0.84,0.12,1.68,0.22,2.53,0.33c0.44,0.06,0.89,0.12,1.34,0.17c1.22,0.16,2.44,0.31,3.66,0.45
						c0.2,0.03,0.4,0.05,0.6,0.07c1.21,0.14,2.43,0.28,3.65,0.42c3.16,0.35,6.35,0.68,9.56,0.98c0.92,0.09,1.84,0.17,2.77,0.25
						c0.66,0.06,1.33,0.12,1.99,0.17c0.42,0.04,0.84,0.07,1.26,0.11c1.36,0.12,2.72,0.23,4.09,0.33c1.54,0.12,3.08,0.23,4.62,0.34
						c0.1,0.01,0.2,0.02,0.29,0.02c1.58,0.11,3.16,0.22,4.76,0.31c1.03,0.06,2.07,0.13,3.12,0.18c0.71,0.05,1.43,0.08,2.14,0.12
						c2.84,0.15,5.7,0.29,8.57,0.4c1.07,0.04,2.13,0.08,3.2,0.12c0.61,0.03,1.21,0.05,1.83,0.06c0.83,0.03,1.66,0.05,2.49,0.07
						c0.73,0.02,1.47,0.04,2.22,0.06c0.78,0.02,1.56,0.04,2.34,0.05c1.06,0.03,2.12,0.04,3.18,0.06c0.4,0.01,0.8,0.02,1.21,0.02
						c1.37,0.02,2.75,0.04,4.13,0.05c3.18,0.03,6.39,0.03,9.62,0.02C756.03,720.07,870.79,519.13,879.57,497.63z"/>
					<path class="st0" d="M880.16,496.02c-0.05,0.16-0.11,0.32-0.17,0.48C880.06,496.24,880.12,496.08,880.16,496.02z"/>
					<path class="st20" d="M879.57,222.62C879.57,222.62,879.57,222.61,879.57,222.62"/>
					
						<linearGradient id="SVGID_00000032633988194633579300000000257247427068957578_" gradientUnits="userSpaceOnUse" x1="299.7944" y1="676.6527" x2="332.501" y2="604.1556">
						<stop  offset="0.2721" style="stop-color:#CC99FF"/>
						<stop  offset="0.879" style="stop-color:#6633B5;stop-opacity:0"/>
					</linearGradient>
					<path style="opacity:0.49;fill:url(#SVGID_00000032633988194633579300000000257247427068957578_);" d="M633.21,730.19
						C362.87,792.61,106.91,629.33,49.89,438c1.59,4.22,47.61,174.76,272.87,267.65C433.71,751.4,577.56,748.34,633.21,730.19z"/>
					<path class="st20" d="M905.71,357.7C905.71,357.69,905.71,357.69,905.71,357.7c0-0.01,0-0.01,0-0.01c0-0.01,0-0.01,0-0.01"/>
					<line class="st0" x1="150.73" y1="152.19" x2="150.71" y2="152.2"/>
					<line class="st0" x1="89.47" y1="228.94" x2="89.45" y2="228.95"/>
					<path class="st0" d="M400.1,40.38c4.62,0.38,7.19,1.02,7.19,1.02"/>
					
						<linearGradient id="SVGID_00000026871559205360899810000001383272312208898176_" gradientUnits="userSpaceOnUse" x1="247.8822" y1="52.4637" x2="247.8822" y2="607.2425">
						<stop  offset="0" style="stop-color:#FF9943"/>
						<stop  offset="0.1715" style="stop-color:#FF6A43"/>
						<stop  offset="0.297" style="stop-color:#D65A44"/>
						<stop  offset="0.6876" style="stop-color:#5A2848"/>
						<stop  offset="0.8597" style="stop-color:#291449"/>
					</linearGradient>
					<path style="fill:url(#SVGID_00000026871559205360899810000001383272312208898176_);" d="M378.61,607.24
						C252.07,587.22,150.1,493.33,118.27,371.13c-8.34-114.47,31.7-209.92,73.42-254.02c26.27-27.75,55.23-51.77,103.68-64.64
						c-40.92,11.8-67.01,31.16-90.88,53.22C143.69,161.89,86.45,313.52,177.34,473C225.53,557.55,306.41,593.2,378.61,607.24z"/>
					
						<linearGradient id="SVGID_00000096742724324963509710000006853286453829606048_" gradientUnits="userSpaceOnUse" x1="249.8604" y1="36.6829" x2="249.8604" y2="240.6088">
						<stop  offset="7.916526e-03" style="stop-color:#FFB766"/>
						<stop  offset="0.1156" style="stop-color:#FF9943"/>
						<stop  offset="0.989" style="stop-color:#FF6A43"/>
					</linearGradient>
					<path style="fill:url(#SVGID_00000096742724324963509710000006853286453829606048_);" d="M400.08,40.38
						c-27.33-2.23-126.25-6.3-190.14,43.79c-30.14,23.64-55.58,51.77-75.2,76.92c-28.62,36.7-44.86,67.05-45.28,67.84
						c0.03-0.04,0.12-0.17,0.26-0.39l-0.52,0.88l-7.74,11.18l1.16-2.87c13.46-31.84,44.85-87.22,111.46-146.39
						c69.77-61.99,178.55-55.39,191.61-53.5c12.45,1.81,30.87,4.89,32.57,5.18c-8.7-1.32-17.29-2.18-25.69-2.65
						C395.04,40.37,397.54,40.36,400.08,40.38z"/>
					
						<linearGradient id="SVGID_00000091731750760986524380000017222855050358060420_" gradientUnits="userSpaceOnUse" x1="174.8261" y1="345.7792" x2="871.067" y2="345.7792">
						<stop  offset="0" style="stop-color:#CC2D47"/>
						<stop  offset="0.1535" style="stop-color:#9C69FF"/>
						<stop  offset="0.3052" style="stop-color:#A06DFF"/>
						<stop  offset="0.4504" style="stop-color:#AB78FF"/>
						<stop  offset="0.5926" style="stop-color:#BF8CFF"/>
						<stop  offset="0.6679" style="stop-color:#CC99FF"/>
						<stop  offset="0.84" style="stop-color:#8B7CE2"/>
						<stop  offset="0.9822" style="stop-color:#5A66CC"/>
					</linearGradient>
					<path style="fill:url(#SVGID_00000091731750760986524380000017222855050358060420_);" d="M839.12,387.72
						c-33.4,180.64-220.88,297.41-418.76,260.83C295.02,625.38,195.58,546.24,148,445.43c46.99,84.79,131.22,146.08,230.61,161.81
						c32.44,6.31,63.12,8.26,88.3,8.32c7.72-0.02,15.95-0.22,24.59-0.66c88.5-1.41,218.42-29.04,285.39-141.95
						c94.57-159.43,35.02-311-28.25-367.19c-26.22-23.29-56.35-43.17-104.12-54.43c-16.19-3.82-34.41-6.65-55.18-8.29
						c-13.59-1.52-28.46-2.42-44.81-2.63c11.53-2.28,26.1-4.11,43.14-4.11c0.83,0,1.66,0.01,2.5,0.02c0.73,0.01,1.46,0.02,2.2,0.03
						c0.68,0.01,1.36,0.03,2.04,0.05c0.53,0.01,1.06,0.03,1.59,0.05c0.82,0.03,1.64,0.06,2.48,0.1c0.68,0.03,1.36,0.06,2.04,0.1
						c1.38,0.07,2.77,0.16,4.18,0.26c0.13,0.01,0.26,0.02,0.4,0.03c0.45,0.03,0.9,0.06,1.36,0.1c0.01-0.01,0.02,0,0.03,0
						c1.62,0.13,3.26,0.27,4.92,0.43c0,0,0.01,0,0.02,0c0.92,0.09,1.85,0.19,2.79,0.29c0.94,0.11,1.88,0.21,2.83,0.33
						c0.95,0.12,1.9,0.24,2.86,0.36c1.69,0.23,3.4,0.47,5.13,0.73c0.31,0.05,0.62,0.09,0.92,0.14c0.9,0.14,1.81,0.29,2.71,0.44
						c0.08,0.01,0.15,0.02,0.23,0.04c0.86,0.14,1.72,0.3,2.59,0.45c2.17,0.39,4.36,0.81,6.58,1.27c0.49,0.1,0.97,0.2,1.46,0.3
						c0.68,0.15,1.36,0.29,2.04,0.44c0.46,0.11,0.93,0.21,1.39,0.31c0.55,0.12,1.1,0.25,1.65,0.38c0.55,0.13,1.1,0.26,1.65,0.39
						c0.55,0.13,1.11,0.26,1.66,0.4s1.11,0.27,1.67,0.42c0.56,0.14,1.12,0.29,1.68,0.43c1.12,0.28,2.24,0.59,3.37,0.9
						c0.53,0.15,1.07,0.3,1.61,0.45c2.94,0.82,5.9,1.7,8.9,2.65c0.51,0.16,1.01,0.33,1.52,0.49c2.32,0.74,4.67,1.54,7.03,2.37
						c0.59,0.21,1.18,0.42,1.77,0.63c0.59,0.21,1.18,0.43,1.78,0.64c0.59,0.22,1.19,0.44,1.78,0.66c1.19,0.45,2.39,0.9,3.59,1.37
						c0.6,0.23,1.2,0.46,1.8,0.7c0.67,0.27,1.35,0.54,2.03,0.81c2.35,0.96,4.71,1.94,7.09,2.98c0.55,0.24,1.09,0.48,1.64,0.72
						c0.87,0.39,1.75,0.78,2.63,1.18c1.01,0.46,2.04,0.92,3.06,1.4C804.79,138.38,862.37,261.95,839.12,387.72z"/>
					<path class="st20" d="M917.08,363.9C917.08,363.9,917.08,363.9,917.08,363.9c0-0.01,0-0.01,0-0.01c0-0.01,0-0.01,0-0.01"/>
				</g>
			</g>
			
				<linearGradient id="SVGID_00000112627433800875115080000009576482032884748988_" gradientUnits="userSpaceOnUse" x1="660.4351" y1="492.8548" x2="879.6648" y2="492.8548">
				<stop  offset="0.2721" style="stop-color:#CC99FF"/>
				<stop  offset="0.879" style="stop-color:#6633B5;stop-opacity:0"/>
			</linearGradient>
			<path style="opacity:0.49;fill:url(#SVGID_00000112627433800875115080000009576482032884748988_);" d="M874.38,404.78
				c-21.46,116.05-104.59,206.66-213.94,249.93c72.46-31.99,131.99-94.84,131.99-94.84s18.1-15.05,51.81-76.01
				c33.72-60.95,35-152.86,35-152.86C880.5,355.3,878.96,380,874.38,404.78z"/>
		</g>
	</g>
	<path class="st38" d="M2758.69,467.31c-2.81,0-4.91,1.4-6.32,2.81c-23.15,22.1-46.66,34.03-79.99,34.03
		c-47.47,0-86.19-31.79-99.17-76.88l-12.36,21.41c18.92,42.8,60.11,71.96,110.83,71.96c41.05,0,68.06-15.09,92.97-38.24
		c1.4-1.41,2.81-3.51,2.81-6.32C2767.46,471.52,2763.25,467.31,2758.69,467.31z M2750.27,315.05c1.4,1.41,3.86,2.46,6.31,2.46
		c4.91,0,9.47-4.21,9.47-9.12c0-3.16-1.75-5.62-3.5-7.37c-23.86-20.35-49.47-34.38-90.17-34.38c-2.19,0-4.37,0.06-6.53,0.17
		l-10.16,17.59c5.3-0.84,10.75-1.27,16.34-1.27C2706.41,283.13,2729.92,296.46,2750.27,315.05z"/>
	<path class="st38" d="M3117.44,279.97c0-4.91,4.21-9.12,9.12-9.12h106.02c30.17,0,54.38,9.47,69.11,24.21
		c11.58,11.58,18.59,28.07,18.59,45.61v0.7c0,41.05-30.52,64.55-71.92,70.17l69.81,90.51c1.75,2.11,2.81,4.21,2.81,6.32
		c0,4.91-4.56,9.47-9.47,9.47c-3.51,0-5.96-2.11-8.07-4.91l-75.43-98.23h-92.34v94.02c0,4.91-4.21,9.12-9.12,9.12
		c-4.91,0-9.12-4.21-9.12-9.12V279.97z M3230.48,398.19c41.05,0,71.57-20.7,71.57-56.13v-0.7c0-32.98-25.96-53.68-70.52-53.68
		h-95.85v110.51H3230.48z"/>
	<path class="st38" d="M3400.42,279.97c0-4.91,4.21-9.12,9.12-9.12h94.99c54.03,0,91.21,27.72,91.21,75.08v0.7
		c0,51.57-44.55,78.23-95.77,78.23h-81.31v83.85c0,4.91-4.21,9.12-9.12,9.12c-4.91,0-9.12-4.21-9.12-9.12V279.97z M3501.02,408.02
		c45.61,0,76.48-23.86,76.48-60.34v-0.7c0-38.94-30.17-59.29-74.37-59.29h-84.46v120.33H3501.02z"/>
	<g>
		<path class="st38" d="M1138.65,270.85h76.13l55.78,155.41l55.78-155.41h74.73l-99.63,247.33h-63.15L1138.65,270.85z"/>
		<path class="st38" d="M1473.9,269.09h65.6l104.55,247.33h-72.97l-17.89-43.85h-94.72l-17.54,43.85h-71.57L1473.9,269.09z
			 M1533.54,419.6l-27.36-69.81l-27.71,69.81H1533.54z"/>
		<path class="st38" d="M1667.91,270.85h63.5l101.04,129.8v-129.8h67.36v245.58h-59.64l-104.9-134.72v134.72h-67.36V270.85z"/>
		<path class="st38" d="M1957.38,270.85h68.41v245.58h-68.41V270.85z"/>
		<path class="st38" d="M2134.83,330.49h-73.67v-59.64h182.38l33.03,59.64h-73.67v185.94h-68.06V330.49z"/>
		<path class="st38" d="M2379.05,424.51l-93.32-153.66h77.53l50.52,89.46l50.87-89.46h76.13l-93.32,152.61v92.97h-68.41V424.51z"/>
	</g>
	<path class="st38" d="M2927.49,267.34c-70.14,0-127,56.86-127,126.99c0,70.14,56.86,127,127,127c70.14,0,127-56.86,127-127
		C3054.49,324.2,2997.63,267.34,2927.49,267.34z M2927.49,504.76c-60.99,0-110.43-49.44-110.43-110.43
		c0-60.98,49.44-110.42,110.43-110.42s110.43,49.44,110.43,110.42C3037.92,455.32,2988.48,504.76,2927.49,504.76z"/>
</g>
</svg>
