<?xml version="1.0" encoding="utf-8"?>
<!-- Generator: Adobe Illustrator 27.4.0, SVG Export Plug-In . SVG Version: 6.00 Build 0)  -->
<svg version="1.1" id="Calque_1" xmlns="http://www.w3.org/2000/svg" xmlns:xlink="http://www.w3.org/1999/xlink" x="0px" y="0px"
	 viewBox="0 0 933.49 800.18" style="enable-background:new 0 0 933.49 800.18;" xml:space="preserve">
<style type="text/css">
	.st0{fill:#FFFFFF;}
	.st1{fill:none;}
	.st2{fill:none;stroke:#000000;stroke-miterlimit:10;}
	.st3{fill:url(#SVGID_1_);}
	.st4{fill:url(#SVGID_00000106132325757528033080000002318988258709730708_);}
	.st5{fill:url(#SVGID_00000005945845234588341240000009245208027692312497_);}
	.st6{fill:url(#SVGID_00000054947650341990954260000016586386987902241203_);}
	.st7{fill:url(#SVGID_00000101782959712218648660000014936649765237239206_);}
	.st8{fill:url(#SVGID_00000041263319793986170790000012370018752332100774_);}
	.st9{fill:url(#SVGID_00000100374922059065408610000013930474597550287003_);}
	.st10{fill:url(#SVGID_00000014629812152427911750000014586586070233395903_);}
	.st11{fill:url(#SVGID_00000040550781849016400350000015864912967552497828_);}
	.st12{fill:url(#SVGID_00000153687400240124724460000008617099413503360899_);}
	.st13{opacity:0.49;fill:url(#SVGID_00000091715706551484747240000005070269497815141764_);}
	.st14{fill:url(#SVGID_00000105416726692258697250000014433909422581307797_);}
	.st15{opacity:0.49;fill:url(#SVGID_00000080921299315427024740000006332217135605217976_);}
	.st16{fill:url(#SVGID_00000114061784312859320930000015937546730384809359_);}
	.st17{fill:url(#SVGID_00000085929352126684598320000005305988467210455680_);}
	.st18{fill:url(#SVGID_00000150792894021577244250000011105392777223400371_);}
	.st19{opacity:0.49;fill:url(#SVGID_00000178887456132373697660000002657217612554115213_);}
	.st20{fill:#080C15;}
	.st21{fill:none;stroke:#FFFFFF;stroke-miterlimit:10;}
	.st22{fill:url(#SVGID_00000013886264882058729610000012179700018225181343_);}
	.st23{fill:url(#SVGID_00000165949321691322366650000011597137268814286253_);}
	.st24{fill:url(#SVGID_00000160873578968877398630000007206100481372231302_);}
	.st25{fill:url(#SVGID_00000134959431527711851160000009090926693480915847_);}
	.st26{fill:url(#SVGID_00000134252281897250200130000009229919366827430581_);}
	.st27{fill:url(#SVGID_00000147911107929317111160000015126977501131670181_);}
	.st28{fill:url(#SVGID_00000137846986660434117440000001564648239369947824_);}
	.st29{fill:url(#SVGID_00000047044803098947173720000006066336730717166252_);}
	.st30{fill:url(#SVGID_00000156547260282165730790000017027784265491365007_);}
	.st31{fill:url(#SVGID_00000074416147320956073860000005184037610024917426_);}
	.st32{opacity:0.49;fill:url(#SVGID_00000140721081250079646830000000350058364289522854_);}
	.st33{fill:url(#SVGID_00000177465062476828409390000003015146231522135742_);}
	.st34{opacity:0.49;fill:url(#SVGID_00000010995068724696510870000007863029861599610532_);}
	.st35{fill:url(#SVGID_00000025423004930259826540000001013626592639839361_);}
	.st36{fill:url(#SVGID_00000092453445799510653160000006976733490083907237_);}
	.st37{fill:url(#SVGID_00000075159910020362141520000006332876270266002828_);}
	.st38{opacity:0.49;fill:url(#SVGID_00000111870456820503723520000005639396072289080202_);}
	.st39{fill:url(#SVGID_00000119797298536506622380000008241255091967135651_);}
	.st40{fill:url(#SVGID_00000106852958509259641360000002018594331276080261_);}
	.st41{fill:url(#SVGID_00000109719131310039099140000010509955226972332214_);}
	.st42{fill:url(#SVGID_00000023268946256937663180000010159769577876838283_);}
	.st43{fill:url(#SVGID_00000001657088744224758660000010636242177472017799_);}
	.st44{fill:url(#SVGID_00000139296110485775506640000000721069958698915752_);}
	.st45{fill:url(#SVGID_00000160912948188186227620000013714981569251938954_);}
	.st46{fill:url(#SVGID_00000035494843074516431730000003886823968296450481_);}
	.st47{fill:url(#SVGID_00000183970748541193249480000003880080802902658446_);}
	.st48{fill:url(#SVGID_00000038397807790129813920000004208933818978336934_);}
	.st49{opacity:0.49;fill:url(#SVGID_00000006672946156904840690000009469438777724307100_);}
	.st50{fill:url(#SVGID_00000119090546951556646190000013155201284963979657_);}
	.st51{opacity:0.49;fill:url(#SVGID_00000010272633990171884240000000330876614679502268_);}
	.st52{fill:url(#SVGID_00000069360395338534602790000016050267041797059470_);}
	.st53{fill:url(#SVGID_00000183216218404001229630000017217302007898791076_);}
	.st54{fill:url(#SVGID_00000096033250563353555560000003922795053060360100_);}
	.st55{opacity:0.49;fill:url(#SVGID_00000080900592733433736120000016039843768005174204_);}
	.st56{fill:url(#SVGID_00000023263323452896151760000017525954033953248147_);}
	.st57{fill:url(#SVGID_00000065059397877945009350000009122619524224129202_);}
	.st58{fill:url(#SVGID_00000011029150404397825120000013428920202556227770_);}
	.st59{fill:url(#SVGID_00000094604360861308746170000017264227655701351562_);}
	.st60{fill:url(#SVGID_00000075129054958110852840000001907177303847316115_);}
	.st61{fill:url(#SVGID_00000023246781540656399620000014524117448438592933_);}
	.st62{fill:url(#SVGID_00000160176598132311228900000016600502014799866032_);}
	.st63{fill:url(#SVGID_00000064317668318611601100000016963259554142111404_);}
	.st64{fill:url(#SVGID_00000124856762088965102440000008459381054918767011_);}
	.st65{fill:url(#SVGID_00000021115445483233337470000005460673775801410200_);}
	.st66{opacity:0.49;fill:url(#SVGID_00000093135305586844992170000014805882493051252104_);}
	.st67{fill:url(#SVGID_00000119810019081384213400000005188165728886742450_);}
	.st68{opacity:0.49;fill:url(#SVGID_00000039842331792436016700000009680212895207720366_);}
	.st69{fill:url(#SVGID_00000086651304850286392800000008082049356413961354_);}
	.st70{fill:url(#SVGID_00000048488072547868781350000004232182024493785747_);}
	.st71{fill:url(#SVGID_00000172422920222843390810000012209679074422332291_);}
	.st72{opacity:0.49;fill:url(#SVGID_00000028308550003856154770000010526295367423349162_);}
	.st73{fill:url(#SVGID_00000072986260263258812760000011845586479592833160_);}
	.st74{fill:url(#SVGID_00000129919350662393616360000005878177624059318675_);}
	.st75{fill:url(#SVGID_00000132780365184598584040000000382847073285373345_);}
	.st76{fill:url(#SVGID_00000118369182231673553250000014146289569818862723_);}
	.st77{fill:url(#SVGID_00000050634985360567614750000011481471687978377877_);}
	.st78{fill:url(#SVGID_00000016041062310226859180000012352622944990969735_);}
	.st79{fill:url(#SVGID_00000044879139943036885580000001122620604897782189_);}
	.st80{fill:url(#SVGID_00000141453734068265826400000010469554408134827192_);}
	.st81{fill:url(#SVGID_00000080922747105134169990000003099718386124186028_);}
	.st82{fill:url(#SVGID_00000160178350671515102480000010686177592480209836_);}
	.st83{opacity:0.49;fill:url(#SVGID_00000072244280046965583800000004036954587198409619_);}
	.st84{fill:url(#SVGID_00000102525914526020416120000010668707680707178942_);}
	.st85{opacity:0.49;fill:url(#SVGID_00000006665523351569296270000015562163452021862068_);}
	.st86{fill:url(#SVGID_00000133526765442325286970000005001756010187371960_);}
	.st87{fill:url(#SVGID_00000055689318658827019370000005992419408105998979_);}
	.st88{fill:url(#SVGID_00000085245223307849373350000003048998696744747660_);}
	.st89{opacity:0.49;fill:url(#SVGID_00000060729538775155439770000017320376445461737874_);}
	.st90{fill:url(#SVGID_00000094602964619501751830000000790316818950781079_);}
	.st91{fill:url(#SVGID_00000167382646514398839240000012951055587754362279_);}
	.st92{fill:url(#SVGID_00000165215805564436704880000013409714287236385961_);}
	.st93{fill:url(#SVGID_00000026852915797793463060000010712325332249701270_);}
	.st94{fill:url(#SVGID_00000137090540584152302790000013614948996577085863_);}
	.st95{fill:url(#SVGID_00000130648013044233809080000001846214740352105354_);}
	.st96{fill:url(#SVGID_00000043459015461132055300000001315532170400690098_);}
	.st97{fill:url(#SVGID_00000111181661126464640530000018266284881037221249_);}
	.st98{fill:url(#SVGID_00000091696331247224433570000012536358047699725200_);}
	.st99{fill:url(#SVGID_00000066517711271578220180000005031393089854581924_);}
	.st100{opacity:0.49;fill:url(#SVGID_00000155130110615162018030000013578866884877750939_);}
	.st101{fill:url(#SVGID_00000116918921210320971490000000175673361647872694_);}
	.st102{opacity:0.49;fill:url(#SVGID_00000166639735607326562890000005626909260977018530_);}
	.st103{fill:url(#SVGID_00000041984033576538755290000008733719079068359335_);}
	.st104{fill:url(#SVGID_00000111165925056777248980000012811638591312914855_);}
	.st105{fill:url(#SVGID_00000009563507948279589930000004611304167665800092_);}
	.st106{opacity:0.49;fill:url(#SVGID_00000118379858001924105160000003082173500280085911_);}
	.st107{fill:url(#SVGID_00000145775411679573566840000012594773863630899606_);}
	.st108{fill:url(#SVGID_00000170966173991440863620000016502892732470975384_);}
	.st109{fill:url(#SVGID_00000080174277535442417550000017140213168970669500_);}
	.st110{fill:url(#SVGID_00000111906184015020265050000003581124891885040564_);}
	.st111{fill:url(#SVGID_00000106132079638124503370000003357996460868188597_);}
	.st112{fill:url(#SVGID_00000101783368133869481910000005836944633014793905_);}
	.st113{fill:url(#SVGID_00000051359878341299837660000011249304498116979331_);}
	.st114{fill:url(#SVGID_00000035531027080211984150000013360349514515618208_);}
	.st115{fill:url(#SVGID_00000155106909196676006580000004759929988079321531_);}
	.st116{fill:url(#SVGID_00000087383095129554950290000014731271653506639027_);}
	.st117{opacity:0.49;fill:url(#SVGID_00000017492971542643726370000000751555323346640800_);}
	.st118{fill:url(#SVGID_00000090285553212407062750000002715173110623398578_);}
	.st119{opacity:0.49;fill:url(#SVGID_00000020390771064103620690000001854837074024707456_);}
	.st120{fill:url(#SVGID_00000108997008883192952790000014506758813380986526_);}
	.st121{fill:url(#SVGID_00000016052567944228099650000014315240858219650705_);}
	.st122{fill:url(#SVGID_00000160150362317486787420000003716530654801588620_);}
	.st123{opacity:0.49;fill:url(#SVGID_00000182497791485728639600000015438906031008821687_);}
	.st124{fill:url(#SVGID_00000068641458159599029400000018135106816558239120_);}
	.st125{fill:url(#SVGID_00000117665714863482486810000007709800835787351989_);}
	.st126{fill:url(#SVGID_00000140724302405547138900000001530265836022745263_);}
	.st127{fill:url(#SVGID_00000011712654827047565920000005462564746724891054_);}
	.st128{fill:url(#SVGID_00000127029779183955145650000010953543449381465993_);}
	.st129{fill:url(#SVGID_00000116235567454157296330000016202261418572491149_);}
	.st130{fill:url(#SVGID_00000119839330769865087880000000746590870468701313_);}
	.st131{fill:url(#SVGID_00000035510246691555577910000008326484997328662951_);}
	.st132{fill:url(#SVGID_00000174561626608357874800000014914825595042089099_);}
	.st133{fill:url(#SVGID_00000178887056734861511020000009945924256382491562_);}
	.st134{opacity:0.49;fill:url(#SVGID_00000003082486757324782110000009815668909960599425_);}
	.st135{fill:url(#SVGID_00000171684170800604528820000014740671992486763948_);}
	.st136{opacity:0.49;fill:url(#SVGID_00000101086868059132746240000011459972594636094640_);}
	.st137{fill:url(#SVGID_00000072270853564205069650000009205266304683501733_);}
	.st138{fill:url(#SVGID_00000076572471082796478330000015479457173554572940_);}
	.st139{fill:url(#SVGID_00000106829250107042464950000011511833648670480263_);}
	.st140{opacity:0.49;fill:url(#SVGID_00000010312890778638703090000018195234711633243011_);}
	.st141{fill:url(#SVGID_00000173856730813262648570000007565973168879991709_);}
	.st142{fill:url(#SVGID_00000007410888877903266070000009599543677330505881_);}
	.st143{fill:url(#SVGID_00000106845558577939880050000007626113790410669502_);}
	.st144{fill:url(#SVGID_00000172422229889717804610000003410058196977746582_);}
	.st145{fill:url(#SVGID_00000053517355228061687080000000066686356026131360_);}
	.st146{fill:url(#SVGID_00000067235231720496597730000004674611547546542467_);}
	.st147{fill:url(#SVGID_00000146484880913729569670000017890654253500396416_);}
	.st148{fill:url(#SVGID_00000142866185222004273760000014169470965316219318_);}
	.st149{fill:url(#SVGID_00000144333198357685607050000007717131363281439131_);}
	.st150{fill:url(#SVGID_00000056402483288449392340000017684968965789924509_);}
	.st151{opacity:0.49;fill:url(#SVGID_00000013181521475100926230000017132595982923933853_);}
	.st152{fill:url(#SVGID_00000140732506302582071330000007385427120055008146_);}
	.st153{opacity:0.49;fill:url(#SVGID_00000153675265814781247740000009156147823782158268_);}
	.st154{fill:url(#SVGID_00000030454158012817611380000016006935532290985118_);}
	.st155{fill:url(#SVGID_00000068664845812751120930000004021089299367806636_);}
	.st156{fill:url(#SVGID_00000109028417675887846010000010525227578142875027_);}
	.st157{opacity:0.49;fill:url(#SVGID_00000145748332885305831740000008724301216433772172_);}
	.st158{fill:url(#SVGID_00000178184840095727540980000013364120822180108205_);}
	.st159{fill:url(#SVGID_00000041280293558666631580000006698850303164545973_);}
	.st160{fill:url(#SVGID_00000115500278669757928500000010355697253230508181_);}
	.st161{fill:url(#SVGID_00000004521597547639956210000006804999305322614431_);}
	.st162{fill:url(#SVGID_00000144324652247631644750000015518708554230818455_);}
	.st163{fill:url(#SVGID_00000029743990641120109930000003523163907796463253_);}
	.st164{fill:url(#SVGID_00000080175520243266119330000011553053757238230420_);}
	.st165{fill:url(#SVGID_00000137097111383924179980000016126615377326763172_);}
	.st166{fill:url(#SVGID_00000138558891513386805700000014857234852140707488_);}
	.st167{fill:url(#SVGID_00000142153627122947915470000014385899104748757888_);}
	.st168{opacity:0.49;fill:url(#SVGID_00000104677026674363465150000005293884296544984497_);}
	.st169{fill:url(#SVGID_00000125584924856911761960000010177714355999252611_);}
	.st170{opacity:0.49;fill:url(#SVGID_00000132795356644462073040000009893748835146931129_);}
	.st171{fill:url(#SVGID_00000157994114437119832300000002889209007309977745_);}
	.st172{fill:url(#SVGID_00000153699358534497214060000014880284171659835546_);}
	.st173{fill:url(#SVGID_00000044177661650624492450000016172440027304894080_);}
	.st174{opacity:0.49;fill:url(#SVGID_00000003787930958683341890000000862861664301406369_);}
	.st175{fill:url(#SVGID_00000137831013598807866130000006556609463385401223_);}
	.st176{fill:url(#SVGID_00000033361705148711272510000016419186182572540556_);}
	.st177{fill:url(#SVGID_00000166645941958063306890000010497152020197154744_);}
	.st178{fill:url(#SVGID_00000142881129811689750570000011184157923053176194_);}
	.st179{fill:url(#SVGID_00000039130170324057791340000003519442633357815687_);}
	.st180{fill:url(#SVGID_00000115480417722604855290000017476522997610767514_);}
	.st181{fill:url(#SVGID_00000088852023699242539980000008941044753959888289_);}
	.st182{fill:url(#SVGID_00000039102578090061296870000006576231026158616500_);}
	.st183{fill:url(#SVGID_00000031924080721371684260000010352017281760371623_);}
	.st184{fill:url(#SVGID_00000109029967320535680500000005522208864660177083_);}
	.st185{opacity:0.49;fill:url(#SVGID_00000054966513355441901980000002924163817735398568_);}
	.st186{fill:url(#SVGID_00000096767481211780031710000007144286148597576369_);}
	.st187{opacity:0.49;fill:url(#SVGID_00000118374933265250910810000007384884425861029000_);}
	.st188{fill:url(#SVGID_00000128463446327108708630000011144334167439564704_);}
	.st189{fill:url(#SVGID_00000011014871646258430770000016052681125654029715_);}
	.st190{fill:url(#SVGID_00000120525543646921862010000008858408576505100952_);}
	.st191{opacity:0.49;fill:url(#SVGID_00000023262097505999638960000000476101866129012669_);}
	.st192{fill:url(#SVGID_00000023968466458562233830000009866399210285333661_);}
	.st193{fill:url(#SVGID_00000153695974187746478470000011567439837844757127_);}
	.st194{fill:url(#SVGID_00000002377598483474435090000000666731366327837875_);}
	.st195{fill:url(#SVGID_00000054232422248100838540000010803548599774512052_);}
	.st196{fill:url(#SVGID_00000075151637218903972510000011036972832202013613_);}
	.st197{fill:url(#SVGID_00000095328635776093872050000013734810027934436252_);}
	.st198{fill:url(#SVGID_00000129203804093203259750000003776541158777403032_);}
	.st199{fill:url(#SVGID_00000024697781373329649910000001847329718354729607_);}
	.st200{fill:url(#SVGID_00000006690721786235568490000008418497133414836158_);}
	.st201{fill:url(#SVGID_00000052791951739120397940000012217173621272378790_);}
	.st202{opacity:0.49;fill:url(#SVGID_00000087391254683585226510000006532406400778089362_);}
	.st203{fill:url(#SVGID_00000145761068256836652730000011460262817192105629_);}
	.st204{opacity:0.49;fill:url(#SVGID_00000125582880226744012760000017548700404270416272_);}
	.st205{fill:url(#SVGID_00000179628715381668074370000015543193516186036107_);}
	.st206{fill:url(#SVGID_00000050663760284036097990000001217595134765262258_);}
	.st207{fill:url(#SVGID_00000012433269708106895460000003358593702328746924_);}
	.st208{opacity:0.49;fill:url(#SVGID_00000065760695933573279560000007702094667344933298_);}
</style>
<g>
	<path class="st1" d="M675.03,516.21c-0.05,0.16-0.11,0.32-0.18,0.48C674.94,516.44,675,516.28,675.03,516.21z"/>
	<path class="st21" d="M674.43,239.37C674.43,239.37,674.43,239.36,674.43,239.37"/>
	<path class="st21" d="M685.94,376.15C685.94,376.14,685.94,376.14,685.94,376.15c0-0.01,0-0.01,0-0.01c0-0.01,0-0.01,0-0.01"/>
	<g>
		<g>
			<g>
				<linearGradient id="SVGID_1_" gradientUnits="userSpaceOnUse" x1="112.4194" y1="424.0217" x2="899.8665" y2="424.0217">
					<stop  offset="0" style="stop-color:#992D47"/>
					<stop  offset="0.2836" style="stop-color:#BA68BE"/>
					<stop  offset="0.4081" style="stop-color:#7A4AA9"/>
					<stop  offset="0.5126" style="stop-color:#493399"/>
					<stop  offset="0.6317" style="stop-color:#4E339A"/>
					<stop  offset="0.7743" style="stop-color:#5D339E"/>
					<stop  offset="0.9286" style="stop-color:#7532A3"/>
					<stop  offset="0.9674" style="stop-color:#7C32A5"/>
				</linearGradient>
				<path class="st3" d="M899.87,361.15c0,0.67,0,1.36-0.01,2.06c0,0,0,0,0,0.01c0,0,0,0,0,0.01c0,0,0,0,0,0.01
					c-0.35,2.12-18.53,110.49-35.37,141.99c-17.02,31.81-50.3,69.53-50.3,69.53s-48.84,59.9-129.41,101.09
					c-24.99,12.78-53.04,23.75-83.63,30.59c-106.21,23.71-182.25,5.44-220.34-6.34c-8.25-2.55-14.72-4.79-19.33-6.24
					c-14.64-4.6-74.05-21.03-152.57-79.42c-18.88-19.6-35.97-43.28-50.21-71.84c-28.53-57.23-42.46-113.57-46.28-165.93
					c2.35,9.03,5.09,17.92,8.19,26.63C153.06,538.56,271.94,651.79,429.9,681c56.59,10.46,112.36,9.06,164.24-2.33
					c0.01-0.01,0.01-0.01,0.02-0.01c4.57-1,9.12-2.07,13.63-3.24c0.02-0.01,0.04-0.01,0.05-0.01c16.02-4.12,31.64-9.19,46.75-15.18
					c109.35-43.27,192.48-133.88,213.94-249.93c4.58-24.78,6.12-49.48,4.87-73.78c-3.92-76.03-35.2-148.14-86.3-206.46
					c0.43,0.38,0.86,0.77,1.29,1.16c0.7,0.63,1.41,1.27,2.12,1.91c0.6,0.55,1.2,1.1,1.81,1.66c0.52,0.48,1.05,0.96,1.56,1.44
					c1.92,1.78,3.84,3.59,5.77,5.44c0.43,0.41,0.86,0.82,1.28,1.23c5.98,5.77,11.99,11.85,18.02,18.26c0.66,0.7,1.32,1.41,1.99,2.12
					c2.12,2.27,4.23,4.58,6.36,6.93c0.67,0.75,1.35,1.5,2.02,2.26c0.43,0.49,0.87,0.97,1.3,1.46c0.43,0.49,0.87,0.98,1.3,1.47
					c2.65,3,5.29,6.07,7.94,9.2c0.7,0.83,1.4,1.66,2.11,2.51c0.12,0.14,0.24,0.29,0.36,0.43c1.74,2.08,3.47,4.19,5.22,6.32
					c2.37,2.9,4.73,5.86,7.1,8.87c0.68,0.87,1.36,1.74,2.05,2.61c0.87,1.12,1.74,2.25,2.62,3.38c0.56,0.73,1.12,1.46,1.68,2.2
					c0.71,0.92,1.41,1.85,2.12,2.79c2.82,3.74,5.65,7.56,8.48,11.46c0.71,0.98,1.41,1.95,2.12,2.94c0.01,0,0.01,0.01,0.01,0.01
					c27.05,64.34,25.64,117.56,25.64,117.56S899.85,351.27,899.87,361.15z"/>
				
					<linearGradient id="SVGID_00000020381665385949984910000016100014348046403006_" gradientUnits="userSpaceOnUse" x1="120.6149" y1="378.0967" x2="873.8209" y2="378.0967">
					<stop  offset="0" style="stop-color:#A8487D"/>
					<stop  offset="0.2407" style="stop-color:#8F4FC8"/>
					<stop  offset="0.3664" style="stop-color:#8352EB"/>
					<stop  offset="0.641" style="stop-color:#B24BBF"/>
					<stop  offset="0.9599" style="stop-color:#5A46CC"/>
				</linearGradient>
				<path style="fill:url(#SVGID_00000020381665385949984910000016100014348046403006_);" d="M868.53,410.31
					C833.8,598.18,637.42,719.37,429.9,681c-157.96-29.21-276.84-142.44-309.29-277.72c5.9,16.56,13.13,32.5,21.54,47.68
					c47.58,100.81,147.02,179.95,272.35,203.12c197.88,36.58,385.37-80.19,418.76-260.83c23.26-125.77-34.32-249.34-138.24-325.15
					c0.02,0.01,0.04,0.02,0.06,0.03c0.62,0.29,1.24,0.58,1.86,0.88c1.25,0.59,2.49,1.19,3.74,1.81c0.62,0.31,1.25,0.61,1.88,0.93
					c1.26,0.63,2.51,1.26,3.78,1.91c0.63,0.33,1.26,0.65,1.9,0.99c0.77,0.4,1.54,0.81,2.32,1.22c1.76,0.94,3.53,1.91,5.31,2.89
					c0.57,0.32,1.15,0.64,1.73,0.97c0.15,0.08,0.3,0.17,0.45,0.26c0.55,0.31,1.11,0.63,1.66,0.95c1.28,0.73,2.57,1.48,3.87,2.25
					c0.64,0.38,1.29,0.77,1.94,1.15c0.65,0.39,1.3,0.78,1.95,1.18c0.65,0.39,1.3,0.79,1.95,1.19c0.65,0.4,1.3,0.8,1.95,1.21
					c0.12,0.07,0.24,0.14,0.35,0.22c0.56,0.35,1.12,0.71,1.69,1.07c1.38,0.87,2.76,1.76,4.15,2.67c0.55,0.36,1.11,0.73,1.67,1.1
					c0.65,0.43,1.31,0.87,1.97,1.31c2.02,1.35,4.05,2.74,6.09,4.17c0.53,0.36,1.06,0.74,1.59,1.11c2.35,1.66,4.71,3.37,7.09,5.13
					c0.64,0.47,1.28,0.95,1.93,1.43c0.05,0.04,0.11,0.08,0.16,0.13c0.73,0.54,1.46,1.09,2.19,1.65c0.89,0.68,1.79,1.36,2.69,2.06
					c0.76,0.59,1.53,1.18,2.29,1.78c0.07,0.06,0.14,0.11,0.21,0.17c0.83,0.65,1.67,1.31,2.5,1.98c0.68,0.54,1.35,1.08,2.03,1.63
					c2.83,2.28,5.67,4.64,8.53,7.06c0.68,0.57,1.36,1.15,2.03,1.74c0.78,0.67,1.56,1.34,2.34,2.02c0.37,0.32,0.74,0.64,1.11,0.97
					c1.03,0.9,2.06,1.82,3.09,2.75h0.01C854.53,207.03,887.45,308,868.53,410.31z"/>
				
					<linearGradient id="SVGID_00000027594038540962156710000005033624878654625152_" gradientUnits="userSpaceOnUse" x1="231.5166" y1="44.7585" x2="231.5166" y2="614.4241">
					<stop  offset="0" style="stop-color:#FF9943"/>
					<stop  offset="0.1715" style="stop-color:#FF6A43"/>
					<stop  offset="0.4862" style="stop-color:#973748"/>
					<stop  offset="0.6504" style="stop-color:#661F4B"/>
				</linearGradient>
				<path style="fill:url(#SVGID_00000027594038540962156710000005033624878654625152_);" d="M394.24,45.91
					c-2.54-0.02-5.04-0.01-7.51,0c-40.25,0.29-71.62,4.71-97.2,12.09c-48.46,12.87-77.42,36.89-103.68,64.64
					c-41.72,44.1-81.77,139.55-73.42,254.02c3.81,52.36,17.74,108.7,46.28,165.93c14.24,28.56,31.33,52.24,50.21,71.84
					c-20.07-14.91-41.38-32.58-63.51-53.47C19.36,405.18,77.7,261.25,117.93,195.4c14.4-23.58,26.48-37.15,26.94-37.67
					c-6.06,4.7-13.77,13.14-21.65,22.75c-17.83,21.74-36.58,49.49-39.28,53.5l-0.06,0.1c-0.14,0.21-0.23,0.34-0.26,0.39
					c0.42-0.79,16.66-31.14,45.28-67.84c19.62-25.16,45.06-53.29,75.2-76.92C267.99,39.61,366.9,43.68,394.24,45.91z"/>
				
					<linearGradient id="SVGID_00000069375950041786680930000007594964929585076884_" gradientUnits="userSpaceOnUse" x1="653.0021" y1="620.4323" x2="653.0021" y2="48.5739">
					<stop  offset="0" style="stop-color:#6633B5"/>
					<stop  offset="0.1453" style="stop-color:#8463A5"/>
					<stop  offset="0.2599" style="stop-color:#998499"/>
					<stop  offset="0.5777" style="stop-color:#33E8E4"/>
					<stop  offset="0.615" style="stop-color:#35DFDF"/>
					<stop  offset="0.676" style="stop-color:#39C7D2"/>
					<stop  offset="0.7531" style="stop-color:#419FBC"/>
					<stop  offset="0.8423" style="stop-color:#4B689F"/>
					<stop  offset="0.9191" style="stop-color:#553382"/>
				</linearGradient>
				<path style="fill:url(#SVGID_00000069375950041786680930000007594964929585076884_);" d="M771.04,478.48
					c-66.97,112.91-196.89,140.53-285.39,141.95c82.33-4.23,201.77-31.02,264.97-141.9c90.9-159.49,33.66-311.11-27.15-367.32
					c-32.24-29.8-68.53-54.67-139.98-62.64c82.07,6.47,124.19,31.53,159.3,62.72C806.06,167.49,865.62,319.05,771.04,478.48z"/>
				
					<linearGradient id="SVGID_00000056427736396015789130000010745493345869229992_" gradientUnits="userSpaceOnUse" x1="461.0575" y1="557.5371" x2="461.0575" y2="133.1071">
					<stop  offset="0" style="stop-color:#B18CD6"/>
					<stop  offset="0.2399" style="stop-color:#D34A92"/>
					<stop  offset="0.63" style="stop-color:#FF6641"/>
					<stop  offset="0.9449" style="stop-color:#FBD973"/>
					<stop  offset="0.9548" style="stop-color:#F6D470"/>
					<stop  offset="0.9671" style="stop-color:#E6C467"/>
					<stop  offset="0.9807" style="stop-color:#CDAB59"/>
					<stop  offset="0.9951" style="stop-color:#AA8845"/>
					<stop  offset="0.9977" style="stop-color:#A38141"/>
				</linearGradient>
				<path style="fill:url(#SVGID_00000056427736396015789130000010745493345869229992_);" d="M632.31,133.11
					c0,0-79.39,186.15-171.25,424.43C369.2,319.26,289.81,133.11,289.81,133.11c35.9,0,70.47,32.19,82.68,60.52
					c15.71,36.44,88.57,210.69,88.57,210.69s72.86-174.25,88.57-210.69C561.84,165.3,596.41,133.11,632.31,133.11z"/>
				
					<linearGradient id="SVGID_00000118393866008703933000000018435305135045958835_" gradientUnits="userSpaceOnUse" x1="523.5408" y1="130.8853" x2="873.7179" y2="130.8853">
					<stop  offset="0" style="stop-color:#3CDBEA"/>
					<stop  offset="0.3794" style="stop-color:#663384"/>
					<stop  offset="0.5075" style="stop-color:#693885"/>
					<stop  offset="0.6521" style="stop-color:#714589"/>
					<stop  offset="0.8047" style="stop-color:#805C8F"/>
					<stop  offset="0.9619" style="stop-color:#937B97"/>
					<stop  offset="1" style="stop-color:#998499"/>
				</linearGradient>
				<path style="fill:url(#SVGID_00000118393866008703933000000018435305135045958835_);" d="M873.72,228.14
					c-0.71-0.99-1.41-1.96-2.12-2.94c-2.82-3.9-5.65-7.72-8.48-11.46c-0.7-0.93-1.41-1.87-2.12-2.79c-0.56-0.74-1.12-1.47-1.68-2.2
					c-0.88-1.14-1.75-2.26-2.62-3.38c-0.68-0.88-1.37-1.75-2.05-2.61c-2.37-3.01-4.73-5.97-7.1-8.87c-1.74-2.14-3.48-4.24-5.22-6.32
					c-0.12-0.15-0.24-0.29-0.36-0.43c-0.7-0.84-1.4-1.68-2.11-2.51c-2.65-3.13-5.3-6.2-7.94-9.2c-0.43-0.49-0.87-0.98-1.3-1.47
					c-0.43-0.49-0.87-0.98-1.3-1.46c-0.68-0.76-1.35-1.51-2.02-2.26c-2.12-2.35-4.24-4.66-6.36-6.93c-0.66-0.71-1.32-1.42-1.99-2.12
					c-6.03-6.41-12.04-12.49-18.02-18.26c-0.43-0.41-0.86-0.82-1.28-1.23c-1.92-1.85-3.85-3.66-5.77-5.44
					c-0.52-0.49-1.04-0.97-1.56-1.44c-0.6-0.55-1.2-1.11-1.81-1.66c-0.71-0.64-1.41-1.28-2.12-1.91c-0.43-0.39-0.87-0.78-1.29-1.16
					h-0.01c-1.03-0.93-2.06-1.84-3.09-2.75c-0.38-0.33-0.74-0.65-1.11-0.97c-0.78-0.68-1.56-1.36-2.34-2.02
					c-0.68-0.59-1.36-1.17-2.03-1.74c-2.86-2.43-5.7-4.78-8.53-7.06c-0.68-0.55-1.36-1.09-2.03-1.63c-0.83-0.67-1.67-1.33-2.5-1.98
					c-0.07-0.06-0.14-0.11-0.21-0.17c-0.76-0.6-1.53-1.19-2.29-1.78c-0.9-0.7-1.8-1.38-2.69-2.06c-0.73-0.56-1.46-1.11-2.19-1.65
					c-0.06-0.05-0.11-0.08-0.16-0.13c-0.64-0.48-1.29-0.96-1.93-1.43c-2.38-1.76-4.74-3.46-7.09-5.13
					c-0.53-0.37-1.06-0.75-1.59-1.11c-2.04-1.43-4.07-2.82-6.09-4.17c-0.66-0.44-1.32-0.88-1.97-1.31c-0.56-0.37-1.11-0.74-1.67-1.1
					c-1.39-0.91-2.77-1.8-4.15-2.67c-0.56-0.36-1.12-0.72-1.69-1.07c-0.12-0.08-0.24-0.15-0.35-0.22c-0.65-0.41-1.3-0.82-1.95-1.21
					c-0.65-0.4-1.3-0.8-1.95-1.19c-0.65-0.4-1.3-0.79-1.95-1.18c-0.64-0.39-1.29-0.77-1.94-1.15c-1.3-0.77-2.59-1.52-3.87-2.25
					c-0.55-0.32-1.11-0.64-1.66-0.95c-0.15-0.09-0.31-0.17-0.45-0.26c-0.58-0.33-1.15-0.65-1.73-0.97
					c-1.78-0.99-3.55-1.95-5.31-2.89c-0.78-0.42-1.55-0.82-2.32-1.22c-0.63-0.34-1.27-0.67-1.9-0.99c-1.26-0.65-2.52-1.29-3.78-1.91
					c-0.63-0.32-1.26-0.62-1.88-0.93c-1.25-0.62-2.5-1.22-3.74-1.81c-0.63-0.3-1.25-0.59-1.86-0.88c-1.05-0.49-2.09-0.97-3.12-1.43
					c-0.88-0.4-1.76-0.8-2.63-1.18c-0.55-0.24-1.1-0.48-1.64-0.72c-2.38-1.03-4.74-2.03-7.09-2.98c-0.68-0.27-1.36-0.54-2.03-0.81
					c-0.6-0.24-1.2-0.48-1.8-0.7c-1.2-0.47-2.4-0.93-3.59-1.37c-0.6-0.22-1.19-0.44-1.78-0.66c-0.6-0.22-1.19-0.43-1.78-0.64
					c-0.59-0.22-1.18-0.43-1.77-0.63c-2.36-0.83-4.7-1.63-7.03-2.37c-0.51-0.17-1.02-0.33-1.52-0.49c-3-0.95-5.97-1.83-8.9-2.65
					c-0.54-0.16-1.08-0.31-1.61-0.45c-1.13-0.31-2.25-0.61-3.37-0.9c-0.56-0.15-1.12-0.3-1.68-0.43c-0.56-0.14-1.11-0.29-1.67-0.42
					c-0.55-0.14-1.11-0.27-1.66-0.4c-0.55-0.14-1.1-0.26-1.65-0.39c-0.55-0.13-1.1-0.26-1.65-0.38c-0.46-0.11-0.93-0.21-1.39-0.31
					c-0.68-0.15-1.36-0.3-2.04-0.44c-0.49-0.1-0.98-0.21-1.46-0.3c-2.22-0.46-4.41-0.88-6.58-1.27c-0.87-0.16-1.73-0.31-2.59-0.45
					c-0.07-0.02-0.15-0.03-0.23-0.04c-0.91-0.16-1.81-0.3-2.71-0.44c-0.31-0.05-0.62-0.1-0.92-0.14c-1.72-0.27-3.43-0.51-5.13-0.73
					c-0.96-0.13-1.91-0.25-2.86-0.36c-0.95-0.12-1.89-0.23-2.83-0.33c-0.93-0.1-1.87-0.2-2.79-0.29c-0.01,0-0.02,0-0.02,0
					c-1.66-0.16-3.29-0.31-4.92-0.43c-0.01,0-0.02-0.01-0.03,0c-0.45-0.04-0.91-0.07-1.36-0.1c-0.13-0.02-0.26-0.03-0.4-0.03
					c-1.4-0.1-2.8-0.19-4.18-0.26c-0.69-0.04-1.37-0.07-2.04-0.1c-0.83-0.04-1.66-0.07-2.48-0.1c-0.53-0.02-1.06-0.04-1.59-0.05
					c-0.69-0.02-1.37-0.04-2.04-0.05c-0.74-0.02-1.47-0.03-2.2-0.03c-0.84-0.01-1.67-0.02-2.5-0.02c-17.04,0-31.61,1.84-43.14,4.11
					h-0.01c-4.91-0.06-9.96-0.06-15.14,0c0,0,70.19-32.73,173.47,8.51c25.4,10.14,52.22,24.04,78.59,44.85
					C826.1,139.14,856.02,186.03,873.72,228.14z"/>
				
					<linearGradient id="SVGID_00000124873050632987660310000016181231696972834984_" gradientUnits="userSpaceOnUse" x1="221.6835" y1="34.017" x2="221.6835" y2="569.0878">
					<stop  offset="0" style="stop-color:#FF9943"/>
					<stop  offset="0.1522" style="stop-color:#CC4D43"/>
					<stop  offset="0.5495" style="stop-color:#743048"/>
					<stop  offset="0.7936" style="stop-color:#431F4B"/>
				</linearGradient>
				<path style="fill:url(#SVGID_00000124873050632987660310000016181231696972834984_);" d="M400.16,43.89
					c0.17,0.07,11.95,4.57,11.63,4.56c-1.13-0.01-16.42-2.55-17.54-2.55h-0.02c-27.33-2.23-126.25-6.3-190.14,43.79
					C129.99,147.83,84.33,233.13,83.62,234.46c0.72-1.09,40.56-60.71,61.25-76.73c-1.76,1.97-170.63,191.68,0.53,403.22
					c2.19,2.71,4.44,5.42,6.74,8.14c-0.78-0.81-1.55-1.62-2.31-2.43l-0.12-0.12c-0.77-0.82-1.54-1.64-2.31-2.45
					c-1.66-1.76-3.3-3.53-4.92-5.28c-1.4-1.53-2.8-3.05-4.19-4.57c-0.04-0.05-0.08-0.1-0.13-0.14c-1.52-1.66-3.01-3.33-4.5-4.99
					c-1.87-2.09-3.73-4.18-5.56-6.26c-0.67-0.76-1.33-1.51-1.99-2.27c-0.44-0.5-0.88-1-1.32-1.5c-0.69-0.79-1.39-1.59-2.07-2.39
					c-2.15-2.47-4.27-4.94-6.37-7.39c-1.4-1.64-2.8-3.29-4.18-4.96C75.81,480.7,44.82,428.2,34.44,375.59
					c-0.15-0.73-0.29-1.45-0.42-2.18c-0.09-0.48-0.17-0.96-0.26-1.43c-0.94-5.25-1.67-10.5-2.18-15.73
					C30.97,172.44,188.58,72.78,204.12,63.4c0.01-0.01,0.02-0.01,0.02-0.01C297.35,18.89,379.72,36.09,400.16,43.89z"/>
				
					<linearGradient id="SVGID_00000173871023742770574380000006712313922767209612_" gradientUnits="userSpaceOnUse" x1="145.3975" y1="545.0093" x2="899.8627" y2="545.0093">
					<stop  offset="0.0688" style="stop-color:#501485"/>
					<stop  offset="0.5582" style="stop-color:#291449"/>
					<stop  offset="1" style="stop-color:#6633B5"/>
				</linearGradient>
				<path style="fill:url(#SVGID_00000173871023742770574380000006712313922767209612_);" d="M899.86,363.22
					c-0.12,26.2-3.6,78.92-25.54,138.32c0,0-0.01,0.01-0.01,0.01c-0.05,0.16-0.11,0.32-0.17,0.48c0,0.01-0.01,0.02-0.01,0.02
					c-0.13,0.34-0.25,0.68-0.37,1.02c-0.01,0.03-0.03,0.06-0.04,0.09c-8.77,21.5-123.54,222.44-343,223.63
					c-3.23,0.02-6.44,0.01-9.62-0.02c-1.38-0.01-2.76-0.03-4.13-0.05c-0.41-0.01-0.81-0.01-1.21-0.02
					c-1.06-0.02-2.12-0.03-3.18-0.06c-0.78-0.02-1.56-0.03-2.34-0.05c-0.74-0.02-1.48-0.04-2.22-0.06
					c-0.83-0.02-1.66-0.05-2.49-0.07c-0.61-0.02-1.22-0.04-1.83-0.06c-1.07-0.03-2.14-0.07-3.2-0.12c-2.88-0.11-5.73-0.24-8.57-0.4
					c-0.71-0.04-1.43-0.07-2.14-0.12c-1.04-0.05-2.08-0.12-3.12-0.18c-1.59-0.09-3.18-0.2-4.76-0.31c-0.1-0.01-0.2-0.01-0.29-0.02
					c-1.55-0.11-3.09-0.22-4.62-0.34c-1.37-0.1-2.73-0.21-4.09-0.33c-0.42-0.04-0.84-0.07-1.26-0.11c-0.67-0.05-1.33-0.11-1.99-0.17
					c-0.92-0.08-1.85-0.16-2.77-0.25c-3.21-0.3-6.4-0.63-9.56-0.98c-1.22-0.14-2.44-0.27-3.65-0.42c-0.2-0.03-0.4-0.05-0.6-0.07
					c-1.22-0.14-2.44-0.29-3.66-0.45c-0.45-0.05-0.89-0.11-1.34-0.17c-0.84-0.11-1.69-0.21-2.53-0.33
					c-0.62-0.08-1.24-0.16-1.85-0.24c-1.26-0.17-2.51-0.35-3.75-0.52c-0.06-0.01-0.12-0.02-0.18-0.03
					c-1.49-0.21-2.97-0.43-4.44-0.65c-0.07-0.01-0.15-0.02-0.22-0.03c-1.41-0.22-2.82-0.43-4.22-0.66
					c-1.47-0.23-2.95-0.48-4.41-0.72c-1.21-0.2-2.42-0.41-3.62-0.62c-0.71-0.12-1.42-0.25-2.13-0.37c-0.6-0.11-1.2-0.22-1.8-0.33
					c-0.62-0.11-1.25-0.23-1.86-0.34c-0.83-0.15-1.65-0.31-2.48-0.48c-0.64-0.12-1.29-0.24-1.93-0.37
					c-0.24-0.05-0.49-0.09-0.73-0.14c-1.07-0.21-2.14-0.43-3.2-0.64c-2.47-0.5-4.92-1.02-7.35-1.55c-1.09-0.24-2.18-0.48-3.25-0.73
					c-0.15-0.03-0.3-0.06-0.45-0.1c-0.71-0.16-1.41-0.32-2.11-0.49c-0.83-0.19-1.67-0.39-2.5-0.59c-0.46-0.11-0.91-0.22-1.37-0.33
					c-0.65-0.15-1.31-0.31-1.96-0.48c-0.78-0.18-1.55-0.38-2.32-0.58c-0.36-0.08-0.72-0.17-1.08-0.27
					c-0.86-0.21-1.72-0.43-2.57-0.65c-0.27-0.07-0.54-0.14-0.8-0.21c-0.94-0.24-1.88-0.49-2.81-0.74c-1.66-0.44-3.32-0.89-4.96-1.35
					c-0.81-0.22-1.63-0.45-2.44-0.68c-1.63-0.46-3.24-0.93-4.85-1.4c-0.9-0.26-1.81-0.53-2.7-0.81c-0.62-0.18-1.25-0.37-1.86-0.56
					c-0.13-0.04-0.26-0.08-0.39-0.12c-1.06-0.32-2.11-0.65-3.16-0.98c-3.35-1.05-6.65-2.13-9.92-3.24
					c-1.07-0.36-2.12-0.72-3.18-1.09c-1.08-0.37-2.15-0.75-3.22-1.13c-1.02-0.36-2.05-0.73-3.06-1.1c-0.1-0.04-0.18-0.07-0.27-0.1
					c-1.01-0.37-2.02-0.74-3.03-1.11c-1.06-0.39-2.1-0.79-3.15-1.18c-2.09-0.8-4.17-1.6-6.22-2.42c-1.03-0.41-2.05-0.82-3.07-1.24
					c-0.84-0.34-1.69-0.69-2.53-1.03c-0.27-0.11-0.54-0.22-0.8-0.33c-0.92-0.38-1.84-0.77-2.76-1.16c-1.01-0.43-2.01-0.86-3.01-1.29
					c-0.92-0.4-1.84-0.8-2.76-1.2c-0.33-0.15-0.65-0.29-0.97-0.43c-0.74-0.33-1.48-0.66-2.22-0.99c-1.97-0.89-3.93-1.78-5.87-2.69
					c-0.84-0.4-1.69-0.79-2.53-1.19c-0.2-0.09-0.4-0.18-0.6-0.29c-0.66-0.31-1.32-0.63-1.98-0.95c-0.33-0.16-0.67-0.32-1-0.48
					c-0.84-0.41-1.69-0.83-2.53-1.24c-0.18-0.09-0.37-0.18-0.56-0.28c-0.41-0.2-0.81-0.4-1.21-0.6c-0.63-0.32-1.3-0.65-2.01-1.01
					c-0.24-0.12-0.48-0.24-0.72-0.36c-0.73-0.37-1.5-0.77-2.31-1.18c-0.27-0.14-0.54-0.28-0.82-0.42c-0.24-0.13-0.49-0.25-0.72-0.37
					c-0.73-0.38-1.49-0.78-2.28-1.19c-0.84-0.44-1.72-0.91-2.62-1.39c-0.23-0.12-0.45-0.24-0.68-0.36
					c-0.71-0.37-1.41-0.76-2.12-1.14c-0.69-0.37-1.39-0.76-2.11-1.15c-0.3-0.16-0.6-0.33-0.9-0.5c-0.5-0.27-0.99-0.55-1.47-0.82
					c-0.38-0.21-0.75-0.42-1.14-0.64c-1.98-1.11-3.94-2.24-5.89-3.37c-0.89-0.52-1.77-1.04-2.65-1.56
					c-0.61-0.35-1.21-0.71-1.81-1.08c-1.77-1.06-3.54-2.13-5.28-3.21c-0.89-0.55-1.77-1.1-2.66-1.65c-1.17-0.73-2.33-1.47-3.48-2.21
					c-1.01-0.65-2.03-1.3-3.04-1.96c-0.89-0.58-1.78-1.16-2.66-1.75c-1.25-0.82-2.48-1.64-3.71-2.47c-0.86-0.58-1.72-1.16-2.57-1.75
					c-0.84-0.57-1.67-1.15-2.5-1.72c-1.13-0.78-2.25-1.57-3.36-2.35c-0.95-0.67-1.9-1.35-2.84-2.02c-0.94-0.68-1.87-1.35-2.81-2.03
					c-0.01-0.01-0.03-0.02-0.04-0.03c-0.89-0.65-1.78-1.3-2.67-1.96c-0.99-0.73-1.97-1.47-2.95-2.2c-1.86-1.39-3.7-2.8-5.52-4.21
					c-0.68-0.52-1.35-1.04-2.01-1.56c-1.34-1.04-2.66-2.09-3.97-3.13c-0.6-0.48-1.19-0.96-1.79-1.44c-1.01-0.81-2.01-1.62-3-2.43
					c-0.88-0.72-1.76-1.44-2.63-2.16c-0.73-0.61-1.47-1.21-2.19-1.82c-1.01-0.84-2.01-1.69-3-2.53c-0.86-0.73-1.71-1.46-2.56-2.19
					c-0.86-0.73-1.7-1.47-2.54-2.2c-0.88-0.76-1.74-1.52-2.61-2.29c-0.81-0.71-1.61-1.43-2.41-2.14c-2.49-2.22-4.94-4.45-7.37-6.69
					c-0.71-0.65-1.41-1.31-2.12-1.96c-0.1-0.1-0.2-0.18-0.3-0.28c-0.8-0.75-1.6-1.5-2.39-2.25c-0.8-0.75-1.59-1.5-2.38-2.25
					c-0.62-0.59-1.23-1.18-1.84-1.76l-0.51-0.49c-0.78-0.76-1.56-1.51-2.33-2.27c-4.12-4.02-8.16-8.06-12.1-12.1
					c-1.08-1.1-2.15-2.21-3.21-3.32c-0.54-0.55-1.07-1.1-1.59-1.66c-2.3-2.71-4.55-5.43-6.74-8.14
					c22.13,20.9,43.44,38.56,63.51,53.47c78.52,58.39,137.94,74.82,152.57,79.42c4.61,1.45,11.08,3.69,19.33,6.24
					c38.09,11.78,114.14,30.05,220.34,6.34c129.21-28.85,213.04-131.67,213.04-131.67s39.6-52.16,52.84-85.72
					C887.8,436.37,899.51,365.35,899.86,363.22z"/>
				
					<linearGradient id="SVGID_00000106867776595114034030000003263116311499068810_" gradientUnits="userSpaceOnUse" x1="308.0541" y1="545.4966" x2="220.0417" y2="704.2346">
					<stop  offset="0.5582" style="stop-color:#291449"/>
					<stop  offset="1" style="stop-color:#6633B5"/>
				</linearGradient>
				<path style="fill:url(#SVGID_00000106867776595114034030000003263116311499068810_);" d="M642.46,732.01
					c-24,9.55-47.76,16.66-70.75,21.86c-40.18,9.1-78.01,12.38-110.65,12.68c-32.65-0.31-70.48-3.58-110.66-12.68
					c-53.15-12.03-110.42-34.25-165.28-73.23C4.59,552.34,22.76,345.71,22.76,345.71s-0.18-7.03,0.88-19.06
					c3.76-42.77,23.28-148.76,122.88-227.34c19.23-15.17,38.6-26.9,57.6-35.91C188.58,72.78,30.97,172.44,31.57,356.26
					c0.04,14.5,1.07,29.52,3.24,45.06C64.33,613.47,346.87,809.36,642.46,732.01z"/>
				
					<linearGradient id="SVGID_00000060712388509337902990000005584051228313853855_" gradientUnits="userSpaceOnUse" x1="150.5735" y1="100.3276" x2="0.5147" y2="370.9716">
					<stop  offset="0" style="stop-color:#FF9943"/>
					<stop  offset="0.1715" style="stop-color:#FF6A43"/>
					<stop  offset="0.297" style="stop-color:#D65A44"/>
					<stop  offset="0.6876" style="stop-color:#5A2848"/>
					<stop  offset="0.8597" style="stop-color:#291449"/>
				</linearGradient>
				<path style="fill:url(#SVGID_00000060712388509337902990000005584051228313853855_);" d="M204.1,63.82
					C188.88,73.01,37.21,168.91,31.72,345.75h-8.98c-0.02-1.62-0.04-8.28,0.88-18.68C27.39,284.3,46.9,178.3,146.51,99.73
					C165.74,84.56,185.11,72.82,204.1,63.82z"/>
				
					<linearGradient id="SVGID_00000039123033920926568210000014492743440569191576_" gradientUnits="userSpaceOnUse" x1="31.5738" y1="511.8804" x2="276.9342" y2="511.8804">
					<stop  offset="0.2721" style="stop-color:#CC99FF"/>
					<stop  offset="0.879" style="stop-color:#6633B5;stop-opacity:0"/>
				</linearGradient>
				<path style="opacity:0.49;fill:url(#SVGID_00000039123033920926568210000014492743440569191576_);" d="M276.93,667.51
					c-38.03-20.85-114.67-68.86-171.64-144.82c-37.28-49.71-48.14-71.01-60.19-104.98c-3.66-10.33-7.56-24.64-8.64-28.96
					c-4.64-18.58-4.88-32.49-4.88-32.49c5.41,58.3,42.14,123.19,84.76,173.03C157.28,577.16,207.07,628.96,276.93,667.51z"/>
				
					<linearGradient id="SVGID_00000174589483595569656430000002698950907350682758_" gradientUnits="userSpaceOnUse" x1="31.5738" y1="552.7488" x2="873.7232" y2="552.7488">
					<stop  offset="0.5582" style="stop-color:#291449"/>
					<stop  offset="1" style="stop-color:#6633B5"/>
				</linearGradient>
				<path style="fill:url(#SVGID_00000174589483595569656430000002698950907350682758_);" d="M873.72,503.16
					C851.54,562.4,810.94,628.09,737,680.64c-31.13,22.13-63.04,38.85-94.54,51.37c-1.41,0.37-2.82,0.73-4.22,1.09
					c-1.19,0.3-2.38,0.6-3.56,0.89c-0.93,0.23-1.86,0.45-2.8,0.68c-0.32,0.08-0.64,0.16-0.96,0.23c-1.18,0.28-2.36,0.56-3.54,0.83
					c-0.01,0-0.01,0.01-0.02,0.01c-1.25,0.29-2.49,0.57-3.73,0.84c-1.25,0.28-2.49,0.55-3.74,0.82c-1.25,0.27-2.49,0.53-3.74,0.79
					c-1.25,0.26-2.5,0.52-3.74,0.77c-2.49,0.5-4.98,0.98-7.47,1.44c-1.21,0.23-2.42,0.45-3.63,0.66c-0.04,0.01-0.08,0.02-0.13,0.03
					c-0.79,0.14-1.58,0.28-2.38,0.42c-0.7,0.13-1.41,0.25-2.12,0.36c-1.14,0.2-2.28,0.38-3.42,0.57c-0.95,0.15-1.9,0.31-2.85,0.45
					c-0.26,0.04-0.51,0.08-0.77,0.12c-1.12,0.17-2.24,0.34-3.35,0.51c-2.31,0.34-4.62,0.67-6.92,0.99
					c-1.42,0.19-2.84,0.37-4.26,0.56c-3.57,0.45-7.13,0.87-10.69,1.25c-0.22,0.02-0.44,0.05-0.67,0.07
					c-1.1,0.12-2.21,0.23-3.32,0.34c-0.06,0.01-0.12,0.01-0.17,0.02c-1.26,0.12-2.52,0.24-3.78,0.35c-1.18,0.11-2.37,0.22-3.55,0.32
					c-1.23,0.1-2.46,0.2-3.69,0.3c-3.69,0.29-7.37,0.53-11.03,0.73c-1.22,0.07-2.45,0.13-3.67,0.19c-2.44,0.12-4.89,0.22-7.33,0.31
					c-1.15,0.04-2.3,0.07-3.44,0.11c-0.12,0-0.24,0.01-0.36,0.01c-3.61,0.1-7.2,0.16-10.79,0.18c-7.33,0.05-14.62-0.05-21.88-0.31
					l-2.6-0.1c-1.73-0.07-3.45-0.15-5.18-0.23c-7.76-0.39-15.48-0.95-23.15-1.66c-4.16-0.39-8.3-0.83-12.43-1.31
					c-0.1-0.02-0.21-0.03-0.31-0.04c-5.08-0.6-10.13-1.28-15.16-2.02c-1.68-0.25-3.35-0.51-5.02-0.77c-2.51-0.4-5.01-0.81-7.5-1.24
					c-4.99-0.86-9.96-1.79-14.89-2.79c-2.47-0.5-4.93-1.01-7.39-1.55c-0.82-0.18-1.64-0.36-2.46-0.54
					c-0.82-0.18-1.63-0.36-2.45-0.55c-0.81-0.18-1.63-0.37-2.44-0.56c-0.88-0.21-1.76-0.41-2.64-0.62c-1.5-0.36-3-0.72-4.49-1.09
					c-0.88-0.22-1.76-0.43-2.63-0.65c-1.6-0.41-3.2-0.81-4.79-1.23c-0.81-0.21-1.61-0.42-2.41-0.64c-0.8-0.21-1.61-0.43-2.4-0.64
					c-1.6-0.44-3.2-0.88-4.8-1.33c-0.8-0.23-1.59-0.45-2.39-0.68c-1.59-0.45-3.18-0.92-4.77-1.39c-3.17-0.94-6.32-1.91-9.47-2.9
					c-0.04-0.01-0.07-0.02-0.11-0.03c-3.1-0.99-6.2-2-9.28-3.04c-1.55-0.52-3.11-1.06-4.66-1.59c-1.51-0.53-3.02-1.06-4.53-1.59
					c-0.1-0.04-0.2-0.07-0.31-0.11c-4.56-1.63-9.08-3.32-13.56-5.07c-1.52-0.59-3.03-1.19-4.54-1.79c-3.02-1.21-6.02-2.44-9.01-3.7
					c-1.49-0.63-2.98-1.27-4.47-1.91c-2.97-1.28-5.92-2.59-8.86-3.92c-1.47-0.67-2.93-1.34-4.39-2.02
					c-4.38-2.03-8.72-4.12-13.01-6.26c-1.43-0.71-2.86-1.43-4.29-2.16c-2.85-1.45-5.68-2.92-8.48-4.42
					c-4.21-2.24-8.38-4.53-12.5-6.87c-0.02-0.01-0.05-0.03-0.08-0.04c-4.11-2.34-8.17-4.72-12.2-7.15
					c-1.35-0.82-2.69-1.64-4.03-2.46c-1.34-0.82-2.67-1.65-4-2.49c-2.66-1.67-5.28-3.36-7.9-5.07c-1.31-0.86-2.61-1.72-3.91-2.58
					c-2.59-1.73-5.16-3.48-7.71-5.25c-1.28-0.89-2.54-1.78-3.81-2.67c-1.27-0.9-2.52-1.8-3.78-2.7c-1.25-0.9-2.5-1.82-3.74-2.73
					c-1.24-0.91-2.48-1.83-3.71-2.76c-1.85-1.39-3.68-2.78-5.5-4.19c-0.6-0.46-1.21-0.93-1.82-1.41c-1.2-0.95-2.41-1.89-3.61-2.84
					c-0.6-0.48-1.19-0.96-1.79-1.43c-1.19-0.96-2.38-1.92-3.55-2.88c-1.18-0.97-2.35-1.94-3.52-2.91c-0.58-0.49-1.16-0.98-1.74-1.46
					c-1.63-1.37-3.24-2.75-4.84-4.13c-0.69-0.59-1.38-1.19-2.06-1.8c-0.56-0.5-1.14-0.99-1.7-1.49c-0.13-0.12-0.26-0.23-0.39-0.34
					c-1-0.89-2-1.77-2.98-2.67c-1.16-1.05-2.31-2.09-3.46-3.15c-1.07-0.98-2.12-1.96-3.18-2.95c-0.54-0.51-1.09-1.02-1.64-1.54
					c-1.09-1.03-2.17-2.06-3.25-3.1c-1.61-1.55-3.21-3.11-4.8-4.69c-0.52-0.52-1.05-1.05-1.58-1.57c-0.52-0.53-1.05-1.05-1.57-1.58
					c-0.52-0.53-1.05-1.06-1.56-1.59c-2.07-2.11-4.12-4.24-6.15-6.4c-0.51-0.53-1.01-1.07-1.51-1.61c-2.51-2.69-4.98-5.41-7.41-8.15
					c-0.49-0.55-0.97-1.1-1.45-1.65c-0.49-0.55-0.97-1.1-1.44-1.65c-0.48-0.55-0.95-1.1-1.43-1.65c-1.42-1.66-2.84-3.33-4.23-5.01
					c-0.83-1-1.66-2.01-2.49-3.01c-1.99-2.43-3.94-4.88-5.88-7.34c-0.82-1.06-1.64-2.12-2.46-3.18c-0.43-0.57-0.87-1.15-1.3-1.72
					c-0.43-0.57-0.87-1.15-1.29-1.72c-0.43-0.58-0.86-1.15-1.28-1.72c-0.39-0.52-0.78-1.05-1.16-1.57c-0.88-1.2-1.76-2.41-2.63-3.63
					c-0.41-0.58-0.83-1.16-1.24-1.74c-0.42-0.59-0.83-1.18-1.25-1.77c-1.21-1.74-2.41-3.48-3.6-5.23c-0.4-0.59-0.79-1.17-1.18-1.76
					c-0.79-1.18-1.57-2.35-2.34-3.53c-0.39-0.59-0.77-1.18-1.15-1.77c-0.38-0.59-0.76-1.18-1.14-1.78
					c-0.37-0.59-0.75-1.18-1.13-1.78c-2.24-3.56-4.42-7.15-6.53-10.76c-0.7-1.2-1.4-2.41-2.09-3.62c-0.69-1.21-1.37-2.42-2.04-3.63
					c-0.34-0.61-0.67-1.21-1-1.82c-0.33-0.61-0.66-1.21-0.99-1.82c-0.98-1.83-1.95-3.65-2.9-5.49c-0.95-1.83-1.87-3.67-2.79-5.52
					c-0.31-0.61-0.61-1.23-0.91-1.85c-1.2-2.46-2.37-4.93-3.5-7.41c-0.28-0.62-0.56-1.24-0.84-1.86c-0.27-0.62-0.55-1.24-0.83-1.86
					c-0.55-1.25-1.09-2.49-1.63-3.73c-0.27-0.62-0.53-1.25-0.8-1.87c-0.52-1.24-1.03-2.48-1.55-3.73c0-0.01,0-0.02-0.01-0.02
					c-0.51-1.25-1.01-2.51-1.5-3.76c-0.24-0.62-0.48-1.24-0.72-1.85c-0.25-0.64-0.49-1.28-0.73-1.93c-0.48-1.26-0.94-2.52-1.4-3.78
					c-0.23-0.63-0.45-1.26-0.68-1.9c-0.22-0.63-0.44-1.26-0.67-1.9c-0.22-0.63-0.44-1.27-0.65-1.9c-0.43-1.27-0.86-2.53-1.27-3.8
					c-0.62-1.91-1.22-3.81-1.81-5.72c-0.2-0.64-0.39-1.27-0.58-1.91c-0.02-0.05-0.03-0.07-0.03-0.07c-0.78-2.61-1.52-5.23-2.22-7.85
					c-0.24-0.88-0.46-1.75-0.69-2.62c-0.23-0.88-0.45-1.75-0.67-2.62c-0.22-0.88-0.43-1.75-0.64-2.63c-0.63-2.63-1.22-5.26-1.77-7.9
					c-0.18-0.88-0.36-1.76-0.54-2.64c-0.17-0.88-0.35-1.76-0.51-2.64c-0.51-2.68-0.98-5.37-1.4-8.06c-0.11-0.67-0.21-1.34-0.31-2.01
					c-0.16-1.06-0.31-2.11-0.46-3.17c-2.16-15.54-3.19-30.56-3.24-45.06c0,0,0.25,13.91,4.88,32.49c1.08,4.32,4.98,18.64,8.64,28.96
					c12.05,33.97,22.91,55.26,60.19,104.98c56.97,75.96,133.61,123.97,171.64,144.82c0.72,0.4,1.43,0.78,2.11,1.15
					c0.93,0.51,1.86,1.01,2.8,1.51c0.9,0.48,1.78,0.95,2.62,1.39c1,0.52,1.99,1.05,3,1.57c0.27,0.14,0.55,0.28,0.82,0.42
					c1.01,0.53,2.02,1.04,3.04,1.55c0.71,0.36,1.38,0.7,2.01,1.01c0.4,0.21,0.81,0.41,1.21,0.6c0.19,0.1,0.38,0.19,0.56,0.28
					c0.84,0.41,1.68,0.83,2.53,1.24c0.33,0.16,0.67,0.32,1,0.48c0.66,0.32,1.32,0.63,1.98,0.95c0.2,0.1,0.4,0.2,0.6,0.29
					c0.84,0.4,1.68,0.8,2.53,1.19c1.94,0.9,3.89,1.8,5.87,2.69c0.73,0.33,1.47,0.66,2.22,0.99c0.32,0.14,0.64,0.29,0.97,0.43
					c0.92,0.4,1.84,0.8,2.76,1.2c1,0.43,2,0.86,3.01,1.29c0.91,0.39,1.83,0.78,2.76,1.16c0.26,0.11,0.53,0.22,0.8,0.33
					c0.84,0.35,1.68,0.69,2.53,1.03c1.02,0.42,2.04,0.83,3.07,1.24c2.06,0.82,4.13,1.63,6.22,2.42c1.05,0.4,2.09,0.79,3.15,1.18
					c1,0.37,2.01,0.74,3.03,1.11c0.08,0.03,0.17,0.06,0.27,0.1c1.01,0.37,2.04,0.73,3.06,1.1c1.07,0.38,2.14,0.76,3.22,1.13
					c1.06,0.37,2.11,0.73,3.18,1.09c3.27,1.11,6.57,2.19,9.92,3.24c1.05,0.33,2.1,0.66,3.16,0.98c0.13,0.04,0.26,0.08,0.39,0.12
					c0.62,0.19,1.24,0.38,1.86,0.56c0.9,0.27,1.8,0.54,2.7,0.81c1.61,0.48,3.23,0.95,4.85,1.4c0.81,0.23,1.63,0.46,2.44,0.68
					c1.65,0.46,3.3,0.91,4.96,1.35c0.93,0.25,1.87,0.5,2.81,0.74c0.26,0.07,0.53,0.14,0.8,0.21c0.86,0.22,1.71,0.44,2.57,0.65
					c0.36,0.1,0.72,0.18,1.08,0.27c0.77,0.2,1.55,0.39,2.32,0.58c0.65,0.16,1.31,0.32,1.96,0.48c0.45,0.11,0.91,0.22,1.37,0.33
					c0.83,0.2,1.66,0.4,2.5,0.59c0.7,0.16,1.4,0.33,2.11,0.49c0.15,0.04,0.3,0.07,0.45,0.1c1.08,0.25,2.16,0.49,3.25,0.73
					c2.43,0.53,4.88,1.05,7.35,1.55c1.07,0.22,2.13,0.43,3.2,0.64c0.24,0.05,0.49,0.1,0.73,0.14c0.64,0.13,1.28,0.25,1.93,0.37
					c0.82,0.16,1.65,0.32,2.48,0.48c0.62,0.12,1.24,0.23,1.86,0.34c0.6,0.11,1.2,0.22,1.8,0.33c0.71,0.13,1.41,0.25,2.13,0.37
					c1.2,0.21,2.41,0.42,3.62,0.62c1.46,0.25,2.94,0.49,4.41,0.72c1.4,0.23,2.81,0.44,4.22,0.66c0.07,0.01,0.15,0.02,0.22,0.03
					c1.47,0.22,2.95,0.44,4.44,0.65c0.06,0.01,0.12,0.02,0.18,0.03c1.25,0.17,2.5,0.35,3.75,0.52c0.61,0.08,1.23,0.16,1.85,0.24
					c0.84,0.12,1.68,0.22,2.53,0.33c0.44,0.06,0.89,0.12,1.34,0.17c1.22,0.16,2.44,0.31,3.66,0.45c0.2,0.03,0.4,0.05,0.6,0.07
					c1.21,0.14,2.43,0.28,3.65,0.42c3.16,0.35,6.35,0.68,9.56,0.98c0.92,0.09,1.84,0.17,2.77,0.25c0.66,0.06,1.33,0.12,1.99,0.17
					c0.42,0.04,0.84,0.07,1.26,0.11c1.36,0.12,2.72,0.23,4.09,0.33c1.54,0.12,3.08,0.23,4.62,0.34c0.1,0.01,0.2,0.02,0.29,0.02
					c1.58,0.11,3.16,0.22,4.76,0.31c1.03,0.06,2.07,0.13,3.12,0.18c0.71,0.05,1.43,0.08,2.14,0.12c2.84,0.15,5.7,0.29,8.57,0.4
					c1.07,0.04,2.13,0.08,3.2,0.12c0.61,0.03,1.21,0.05,1.83,0.06c0.83,0.03,1.66,0.05,2.49,0.07c0.73,0.02,1.47,0.04,2.22,0.06
					c0.78,0.02,1.56,0.04,2.34,0.05c1.06,0.03,2.12,0.04,3.18,0.06c0.4,0.01,0.8,0.02,1.21,0.02c1.37,0.02,2.75,0.04,4.13,0.05
					c3.18,0.03,6.39,0.03,9.62,0.02C750.18,725.6,864.95,524.65,873.72,503.16z"/>
				<path class="st1" d="M874.31,501.55c-0.05,0.16-0.11,0.32-0.17,0.48C874.22,501.77,874.28,501.61,874.31,501.55z"/>
				<path class="st21" d="M873.72,228.15C873.72,228.15,873.72,228.14,873.72,228.15"/>
				
					<linearGradient id="SVGID_00000069370161646542276440000006648179127562836389_" gradientUnits="userSpaceOnUse" x1="293.9498" y1="682.1818" x2="326.6565" y2="609.6847">
					<stop  offset="0.2721" style="stop-color:#CC99FF"/>
					<stop  offset="0.879" style="stop-color:#6633B5;stop-opacity:0"/>
				</linearGradient>
				<path style="opacity:0.49;fill:url(#SVGID_00000069370161646542276440000006648179127562836389_);" d="M627.37,735.72
					c-270.34,62.42-526.3-100.86-583.33-292.19c1.59,4.22,47.61,174.76,272.87,267.65C427.86,756.93,571.71,753.87,627.37,735.72z"
					/>
				<path class="st21" d="M899.86,363.22C899.86,363.22,899.86,363.22,899.86,363.22c0-0.01,0-0.01,0-0.01c0-0.01,0-0.01,0-0.01"/>
				<line class="st1" x1="144.89" y1="157.71" x2="144.87" y2="157.73"/>
				<line class="st1" x1="83.62" y1="234.46" x2="83.61" y2="234.48"/>
				<path class="st1" d="M394.25,45.91c4.62,0.38,7.19,1.02,7.19,1.02"/>
				
					<linearGradient id="SVGID_00000145772213955587075570000010501235820483704480_" gradientUnits="userSpaceOnUse" x1="242.0376" y1="57.9927" x2="242.0376" y2="612.7715">
					<stop  offset="0" style="stop-color:#FF9943"/>
					<stop  offset="0.1715" style="stop-color:#FF6A43"/>
					<stop  offset="0.297" style="stop-color:#D65A44"/>
					<stop  offset="0.6876" style="stop-color:#5A2848"/>
					<stop  offset="0.8597" style="stop-color:#291449"/>
				</linearGradient>
				<path style="fill:url(#SVGID_00000145772213955587075570000010501235820483704480_);" d="M372.76,612.77
					c-126.54-20.03-228.51-113.91-260.34-236.12c-8.34-114.47,31.7-209.92,73.42-254.02c26.27-27.75,55.23-51.77,103.68-64.64
					c-40.92,11.8-67.01,31.16-90.88,53.22C137.84,167.42,80.6,319.04,171.5,478.53C219.68,563.07,300.57,598.73,372.76,612.77z"/>
				
					<linearGradient id="SVGID_00000096753169083803419180000003128717312432973214_" gradientUnits="userSpaceOnUse" x1="244.0158" y1="42.2119" x2="244.0158" y2="246.1379">
					<stop  offset="7.916526e-03" style="stop-color:#FFB766"/>
					<stop  offset="0.1156" style="stop-color:#FF9943"/>
					<stop  offset="0.989" style="stop-color:#FF6A43"/>
				</linearGradient>
				<path style="fill:url(#SVGID_00000096753169083803419180000003128717312432973214_);" d="M394.24,45.91
					c-27.33-2.23-126.25-6.3-190.14,43.79c-30.14,23.64-55.58,51.77-75.2,76.92c-28.62,36.7-44.86,67.05-45.28,67.84
					c0.03-0.04,0.12-0.17,0.26-0.39l-0.52,0.88l-7.74,11.18l1.16-2.87c13.46-31.84,44.85-87.22,111.46-146.39
					c69.77-61.99,178.55-55.39,191.61-53.5c12.45,1.81,30.87,4.89,32.57,5.18c-8.7-1.32-17.29-2.18-25.69-2.65
					C389.2,45.9,391.7,45.89,394.24,45.91z"/>
				
					<linearGradient id="SVGID_00000008841144033723281600000007514900220302871946_" gradientUnits="userSpaceOnUse" x1="168.9815" y1="351.3083" x2="865.2224" y2="351.3083">
					<stop  offset="0" style="stop-color:#CC2D47"/>
					<stop  offset="0.1535" style="stop-color:#9C69FF"/>
					<stop  offset="0.3052" style="stop-color:#A06DFF"/>
					<stop  offset="0.4504" style="stop-color:#AB78FF"/>
					<stop  offset="0.5926" style="stop-color:#BF8CFF"/>
					<stop  offset="0.6679" style="stop-color:#CC99FF"/>
					<stop  offset="0.84" style="stop-color:#8B7CE2"/>
					<stop  offset="0.9822" style="stop-color:#5A66CC"/>
				</linearGradient>
				<path style="fill:url(#SVGID_00000008841144033723281600000007514900220302871946_);" d="M833.27,393.25
					c-33.4,180.64-220.88,297.41-418.76,260.83c-125.33-23.17-224.77-102.31-272.35-203.12c46.99,84.79,131.22,146.08,230.61,161.81
					c32.44,6.31,63.12,8.26,88.3,8.32c7.72-0.02,15.95-0.22,24.59-0.66c88.5-1.41,218.42-29.04,285.39-141.95
					c94.57-159.43,35.02-311-28.25-367.19C716.57,88,686.44,68.12,638.68,56.86c-16.19-3.82-34.41-6.65-55.18-8.29
					c-13.59-1.52-28.46-2.42-44.81-2.63c11.53-2.28,26.1-4.11,43.14-4.11c0.83,0,1.66,0.01,2.5,0.02c0.73,0.01,1.46,0.02,2.2,0.03
					c0.68,0.01,1.36,0.03,2.04,0.05c0.53,0.01,1.06,0.03,1.59,0.05c0.82,0.03,1.64,0.06,2.48,0.1c0.68,0.03,1.36,0.06,2.04,0.1
					c1.38,0.07,2.77,0.16,4.18,0.26c0.13,0.01,0.26,0.02,0.4,0.03c0.45,0.03,0.9,0.06,1.36,0.1c0.01-0.01,0.02,0,0.03,0
					c1.62,0.13,3.26,0.27,4.92,0.43c0,0,0.01,0,0.02,0c0.92,0.09,1.85,0.19,2.79,0.29c0.94,0.11,1.88,0.21,2.83,0.33
					c0.95,0.12,1.9,0.24,2.86,0.36c1.69,0.23,3.4,0.47,5.13,0.73c0.31,0.05,0.62,0.09,0.92,0.14c0.9,0.14,1.81,0.29,2.71,0.44
					c0.08,0.01,0.15,0.02,0.23,0.04c0.86,0.14,1.72,0.3,2.59,0.45c2.17,0.39,4.36,0.81,6.58,1.27c0.49,0.1,0.97,0.2,1.46,0.3
					c0.68,0.15,1.36,0.29,2.04,0.44c0.46,0.11,0.93,0.21,1.39,0.31c0.55,0.12,1.1,0.25,1.65,0.38c0.55,0.13,1.1,0.26,1.65,0.39
					c0.55,0.13,1.11,0.26,1.66,0.4s1.11,0.27,1.67,0.42c0.56,0.14,1.12,0.29,1.68,0.43c1.12,0.28,2.24,0.59,3.37,0.9
					c0.53,0.15,1.07,0.3,1.61,0.45c2.94,0.82,5.9,1.7,8.9,2.65c0.51,0.16,1.01,0.33,1.52,0.49c2.32,0.74,4.67,1.54,7.03,2.37
					c0.59,0.21,1.18,0.42,1.77,0.63c0.59,0.21,1.18,0.43,1.78,0.64c0.59,0.22,1.19,0.44,1.78,0.66c1.19,0.45,2.39,0.9,3.59,1.37
					c0.6,0.23,1.2,0.46,1.8,0.7c0.67,0.27,1.35,0.54,2.03,0.81c2.35,0.96,4.71,1.94,7.09,2.98c0.55,0.24,1.09,0.48,1.64,0.72
					c0.87,0.39,1.75,0.78,2.63,1.18c1.01,0.46,2.04,0.92,3.06,1.4C798.95,143.91,856.53,267.48,833.27,393.25z"/>
				<path class="st21" d="M911.24,369.43C911.24,369.43,911.24,369.43,911.24,369.43c0-0.01,0-0.01,0-0.01c0-0.01,0-0.01,0-0.01"/>
			</g>
		</g>
		
			<linearGradient id="SVGID_00000067933698139273470280000007457647973990413759_" gradientUnits="userSpaceOnUse" x1="654.5905" y1="498.3839" x2="873.8202" y2="498.3839">
			<stop  offset="0.2721" style="stop-color:#CC99FF"/>
			<stop  offset="0.879" style="stop-color:#6633B5;stop-opacity:0"/>
		</linearGradient>
		<path style="opacity:0.49;fill:url(#SVGID_00000067933698139273470280000007457647973990413759_);" d="M868.53,410.31
			c-21.46,116.05-104.59,206.66-213.94,249.93c72.46-31.99,131.99-94.84,131.99-94.84s18.1-15.05,51.81-76.01
			c33.72-60.95,35-152.86,35-152.86C874.66,360.83,873.11,385.53,868.53,410.31z"/>
	</g>
</g>
</svg>
